<svg width="14" height="11" viewBox="0 0 14 11" fill="none" xmlns="http://www.w3.org/2000/svg">
<path d="M13.6613 2.49202C13.4441 2.06456 13.1309 1.6772 12.7392 1.35162C12.3472 1.02507 11.8851 0.765565 11.3779 0.587218C10.852 0.401549 10.288 0.306513 9.71847 0.307627C8.91954 0.307627 8.14005 0.493562 7.46266 0.844773C7.3006 0.928788 7.14665 1.02107 7.0008 1.12161C6.85495 1.02107 6.701 0.928788 6.53894 0.844773C5.86155 0.493562 5.08206 0.307627 4.28313 0.307627C3.70783 0.307627 3.15036 0.401283 2.62368 0.587218C2.11483 0.766267 1.65621 1.02382 1.26241 1.35162C0.870233 1.67683 0.556949 2.06428 0.340317 2.49202C0.115059 2.93689 0 3.4093 0 3.89549C0 4.35413 0.110198 4.83205 0.328973 5.31823C0.512096 5.72453 0.774626 6.14599 1.11008 6.57157C1.64162 7.24507 2.37249 7.94749 3.28 8.65956C4.78388 9.8399 6.27317 10.6553 6.33637 10.6883L6.72045 10.8977C6.8906 10.9899 7.10938 10.9899 7.27954 10.8977L7.66361 10.6883C7.72681 10.6539 9.21448 9.8399 10.72 8.65956C11.6275 7.94749 12.3584 7.24507 12.8899 6.57157C13.2254 6.14599 13.4895 5.72453 13.671 5.31823C13.8898 4.83205 14 4.35413 14 3.89549C14.0016 3.4093 13.8865 2.93689 13.6613 2.49202Z" fill="#FDCE77"/>
</svg>
