<svg width="18" height="17" viewBox="0 0 18 17" fill="none" xmlns="http://www.w3.org/2000/svg">
<path d="M8.923 4.40624C8.01835 4.40624 7.13401 4.64452 6.38182 5.09097C5.62963 5.53741 5.04337 6.17196 4.69718 6.91437C4.35098 7.65677 4.2604 8.4737 4.43689 9.26183C4.61338 10.05 5.04901 10.7739 5.68869 11.3421C6.32838 11.9103 7.14339 12.2973 8.03066 12.4541C8.91793 12.6108 9.8376 12.5304 10.6734 12.2229C11.5092 11.9154 12.2235 11.3946 12.7261 10.7264C13.2287 10.0583 13.497 9.27276 13.497 8.46919C13.4981 7.93537 13.3805 7.40662 13.151 6.91326C12.9215 6.41989 12.5846 5.97163 12.1597 5.59416C11.7347 5.21669 11.2301 4.91746 10.6746 4.7136C10.1192 4.50975 9.52396 4.4053 8.923 4.40624ZM8.923 11.11C8.335 11.11 7.7602 10.9551 7.27129 10.665C6.78238 10.3748 6.40133 9.96234 6.17631 9.47979C5.95129 8.99724 5.89241 8.46626 6.00713 7.95399C6.12184 7.44172 6.40499 6.97117 6.82077 6.60184C7.23655 6.23252 7.76629 5.981 8.343 5.8791C8.9197 5.7772 9.51747 5.8295 10.0607 6.02938C10.604 6.22926 11.0683 6.56774 11.395 7.00202C11.7216 7.4363 11.896 7.94688 11.896 8.46919C11.8944 9.16915 11.5807 9.84004 11.0235 10.335C10.4663 10.8299 9.711 11.1086 8.923 11.11ZM14.75 4.24013C14.75 4.42759 14.6874 4.61083 14.5702 4.76669C14.4529 4.92255 14.2863 5.04403 14.0913 5.11577C13.8964 5.18751 13.6818 5.20628 13.4748 5.16971C13.2679 5.13313 13.0777 5.04287 12.9285 4.91032C12.7793 4.77777 12.6777 4.60889 12.6365 4.42503C12.5953 4.24118 12.6165 4.05061 12.6972 3.87743C12.778 3.70424 12.9147 3.55622 13.0902 3.45208C13.2657 3.34793 13.472 3.29235 13.683 3.29235C13.8233 3.29188 13.9623 3.31606 14.0921 3.36352C14.2218 3.41097 14.3397 3.48075 14.439 3.56885C14.5383 3.65694 14.6169 3.7616 14.6705 3.87681C14.724 3.99202 14.7514 4.11549 14.751 4.24013H14.75ZM17.775 5.20124C17.8045 3.96927 17.2868 2.77649 16.334 1.88088C15.3237 1.03738 13.9823 0.578041 12.596 0.600883C11.123 0.526268 6.709 0.526268 5.236 0.600883C3.85013 0.576324 2.50847 1.03448 1.498 1.87733C0.549305 2.77487 0.034171 3.96681 0.063 5.19769C-0.021 6.50611 -0.021 10.4269 0.063 11.7354C0.0335268 12.9673 0.551177 14.1601 1.504 15.0557C2.51461 15.8981 3.85534 16.357 5.241 16.3348C6.714 16.4094 11.128 16.4094 12.601 16.3348C13.9879 16.361 15.3307 15.9012 16.339 15.0548C17.2865 14.1569 17.8018 12.9658 17.775 11.7354C17.863 10.4269 17.863 6.50967 17.775 5.20124ZM15.875 13.1371C15.7237 13.479 15.4946 13.7896 15.2021 14.0494C14.9096 14.3092 14.56 14.5127 14.175 14.6471C13.001 15.0611 10.214 14.9651 8.917 14.9651C7.62 14.9651 4.829 15.0539 3.659 14.6471C3.27403 14.5127 2.9244 14.3092 2.6319 14.0494C2.33941 13.7896 2.11034 13.479 1.959 13.1371C1.493 12.0942 1.601 9.61861 1.601 8.46653C1.601 7.31444 1.501 4.83527 1.959 3.796C2.11034 3.45404 2.33941 3.14347 2.6319 2.88365C2.9244 2.62384 3.27403 2.42037 3.659 2.28593C4.833 1.872 7.62 1.96793 8.917 1.96793C10.214 1.96793 13.005 1.87911 14.175 2.28593C14.56 2.42037 14.9096 2.62384 15.2021 2.88365C15.4946 3.14347 15.7237 3.45404 15.875 3.796C16.341 4.83883 16.233 7.31444 16.233 8.46653C16.233 9.61861 16.343 12.0996 15.875 13.1371Z" fill="#FDCE77"/>
</svg>
