
<svg width="168" height="182" viewBox="0 0 168 182" fill="none" xmlns="http://www.w3.org/2000/svg">
<g opacity="0.3" filter="url(#filter0_f_381_817)">
<path d="M34.9557 110.094C31.5656 110.392 28.9837 109.292 27.9095 105.949C26.8412 102.639 28.3058 99.8688 31.2526 97.1676C27.7925 96.0683 25.1022 94.4168 25.1811 90.4283C25.2496 87.0081 27.178 84.7828 30.1845 83.3254C30.4986 83.2349 30.8059 83.155 31.1201 83.0646C32.7287 82.8708 34.4996 82.8042 35.5729 83.8344C37.5388 85.7119 37.8504 84.3089 39.0946 82.6286C40.8044 80.301 41.1999 79.1696 38.4602 78.0628C37.4644 77.6539 36.9753 76.1511 36.2632 75.1473C36.1825 74.7009 36.1018 74.2545 36.0143 73.8188C36.2337 70.6073 37.3879 67.9006 40.5394 66.4275C44.0359 64.7941 46.6935 66.0724 49.2092 68.8265C50.5343 65.0443 52.5 62.2081 56.3905 61.8876C59.7174 61.625 61.7051 63.3832 62.8166 66.307C62.8734 66.6211 62.9204 66.9294 62.9772 67.2435C62.6648 68.6902 62.8058 70.5281 61.9627 71.4928C59.6952 74.1028 61.2764 74.3344 63.0002 75.5946C65.0746 77.1105 65.6731 76.5728 66.9147 74.4931C67.6137 73.309 69.2048 72.6333 70.3957 71.7162C70.7263 71.621 71.0638 71.5151 71.3944 71.4199C74.8221 71.0413 77.3837 72.1732 78.4782 75.4846C79.563 78.79 78.1705 81.5741 75.2373 84.2541C78.5177 85.466 81.3389 86.9754 81.2593 91.0076C81.1907 94.4279 79.2818 96.6649 76.3204 98.179C75.9401 98.2885 75.5667 98.3874 75.1962 98.5028C73.805 98.3122 72.0535 98.5819 71.1 97.8303C69.0408 96.2057 68.5216 97.0858 67.2372 99.1691C65.9934 101.188 65.2766 102.082 67.7173 103.171C68.8332 103.667 69.3591 105.324 70.1446 106.446C70.2134 106.826 70.2821 107.206 70.3607 107.592C70.3049 111.035 68.962 113.805 65.6039 115.242C62.2692 116.663 59.6564 115.633 57.3564 112.773C55.8353 116.482 53.8011 119.468 49.7515 119.678C46.6403 119.835 44.7501 118.135 43.5949 115.45C43.5082 114.971 43.4313 114.497 43.3378 114.029C43.3686 111.602 44.3383 109.461 45.9478 107.589C43.0777 105.328 40.43 103.864 37.8878 108.563C37.5815 109.129 36.6625 109.385 36.0205 109.779C35.65 109.894 35.3029 109.994 34.9557 110.094ZM56.4594 108.727C55.4247 106.468 61.5363 105.012 57.5673 102.589C55.5437 101.355 54.5846 101.822 53.2972 103.889C50.5841 108.219 56.5354 106.165 56.4594 108.727ZM35.2926 96.0386C37.4316 95.0746 38.9464 101.335 41.6256 95.6146C43.7507 91.0627 39.1879 92.9076 38.5218 91.0035C37.9609 93.0958 36.4407 94.212 35.2926 96.0386ZM71.2631 85.7467C66.2099 83.4366 66.3135 83.5285 65.4184 84.6386C62.3255 88.5039 66.0891 88.8286 67.9016 90.82C68.4635 88.4926 69.983 87.2287 71.2631 85.7467ZM50.0967 72.6758C49.1684 74.7087 48.3119 76.4165 46.8972 78.0676C49.0012 77.5833 49.6166 82.285 52.7103 78.3761C56.5313 73.5357 49.932 75.228 50.0967 72.6758ZM51.5904 89.3524C50.971 90.4962 49.2075 91.613 51.5515 92.4075C52.7381 92.8136 53.5705 94.435 54.8981 91.9653C55.8035 90.2869 56.1249 89.6117 54.3617 88.7106C53.0386 88.0307 52.2188 87.345 51.5904 89.3524Z" fill="#F65F5F"/>
<path d="M61.8333 68.255C61.7764 67.9409 61.7293 67.6327 61.6725 67.3185C61.8057 67.0453 62.0178 66.7756 62.0721 66.499C62.7062 62.8897 64.4006 60.1405 68.2017 59.5158C71.2933 59.0084 73.5554 60.3575 74.4833 63.2736C75.6263 66.8496 73.8568 69.5682 70.8502 71.7471C70.6201 71.9177 70.4568 72.217 70.265 72.4548C69.9343 72.5501 69.5969 72.6559 69.2662 72.7511C66.0791 72.3467 63.6127 70.8303 61.8333 68.255Z" fill="#F65F5F"/>
<path d="M71.5164 108.602C71.4476 108.222 71.3788 107.842 71.3003 107.456C71.9415 104.175 73.6401 101.547 76.3509 99.5139C76.7312 99.4044 77.1046 99.3056 77.4751 99.1902C78.4351 99.4008 79.4162 99.5357 80.3348 99.8539C82.9335 100.758 84.5195 102.554 84.4224 105.573C84.33 108.331 82.9692 110.47 80.4851 111.786C77.762 113.222 75.3876 112.644 73.3982 110.782C72.6925 110.151 72.1379 109.345 71.5164 108.602Z" fill="#F65F5F"/>
<path d="M44.4847 113.028C44.5715 113.508 44.6485 113.981 44.742 114.45C44.5055 115.162 44.2623 115.884 44.016 116.59C42.9812 119.619 41.0945 121.736 37.9109 122.07C34.991 122.371 32.8832 121.056 31.9222 118.341C30.8832 115.388 32.0446 112.818 34.4228 110.629C34.9815 110.112 35.5596 109.606 36.1183 109.089C36.4655 108.989 36.8194 108.878 37.1666 108.778C40.2723 109.119 42.673 110.611 44.4847 113.028Z" fill="#F65F5F"/>
<path d="M29.9671 82.0636C29.6529 82.1541 29.3456 82.2339 29.0314 82.3243C25.4888 81.5876 22.0041 80.7385 22.0132 76.031C22.0132 73.2916 23.3583 71.1128 25.859 69.7928C30.1328 67.5535 32.5643 70.0799 34.8837 72.8038C34.9645 73.2501 35.0453 73.6965 35.1328 74.1322C34.3736 77.3859 32.5931 79.9944 29.9671 82.0636Z" fill="#F65F5F"/>
<path d="M72.9435 125.609C71.1403 128.571 67.0404 129.752 64.3898 128.08C61.8758 126.491 61.172 122.65 62.897 119.831C64.7069 116.858 68.7903 115.682 71.4507 117.36C73.9481 118.954 74.6519 122.795 72.9435 125.609Z" fill="#F65F5F"/>
<path d="M14.6582 97.4335C11.9826 95.8646 11.2767 91.7718 13.1993 88.9398C15.031 86.2296 18.8394 85.1679 21.3881 86.6604C24.0637 88.2293 24.7696 92.3221 22.847 95.1541C21.0251 97.8702 17.2069 98.926 14.6582 97.4335Z" fill="#F65F5F"/>
<path d="M26.2837 108.251C24.5495 111.211 20.4777 112.453 17.8028 110.84C15.2743 109.316 14.5238 105.505 16.17 102.683C17.9042 99.7228 21.9759 98.4809 24.6509 100.094C27.1891 101.624 27.9464 105.424 26.2837 108.251Z" fill="#F65F5F"/>
<path d="M84.6567 94.6906C82.0776 92.8852 81.646 88.7224 83.754 86.0024C85.7913 83.3723 89.6608 82.5539 92.0612 84.2367C94.6403 86.042 95.0651 90.2155 92.9639 92.9249C90.9364 95.5609 87.0668 96.3793 84.6567 94.6906Z" fill="#F65F5F"/>
<path d="M41.7166 53.3248C44.2833 54.7251 45.1795 58.4759 43.6243 61.3673C42.0179 64.3603 37.9832 65.7568 35.234 64.2612C32.5141 62.7834 31.7023 58.73 33.5603 55.8297C35.3235 53.0784 39.1206 51.9069 41.7166 53.3248Z" fill="#F65F5F"/>
<path d="M90.0912 79.0499C88.2196 81.9715 84.1116 83.0586 81.5346 81.3135C79.068 79.6496 78.4596 75.8072 80.2364 73.0347C82.1079 70.1131 86.216 69.0259 88.7929 70.7711C91.2595 72.435 91.8611 76.288 90.0912 79.0499Z" fill="#F65F5F"/>
<path d="M55.3365 50.2417C57.9949 51.8592 58.6415 55.9606 56.6798 58.7691C54.8022 61.4665 50.9749 62.4727 48.4697 60.9329C45.8113 59.3154 45.1647 55.214 47.1167 52.3996C48.9972 49.7188 52.8313 48.7019 55.3365 50.2417Z" fill="#F65F5F"/>
<path d="M59.4727 128.839C57.6499 131.79 53.5604 132.933 50.933 131.245C48.4326 129.635 47.7648 125.801 49.5025 123.005C51.3253 120.054 55.405 118.905 58.0354 120.609C60.5359 122.219 61.2006 126.037 59.4727 128.839Z" fill="#F65F5F"/>
<path d="M20.0492 115.825C22.3862 113.022 25.0041 112.346 27.7959 114.074C30.4607 115.724 30.8386 119.399 28.6279 122.132C26.3096 124.991 23.5702 125.475 20.9228 123.585C18.2237 121.648 18.2177 118.875 20.0492 115.825Z" fill="#F65F5F"/>
<path d="M78.1367 124.54C75.5147 122.591 74.8933 120.022 76.7196 116.853C78.4609 113.839 82.1362 112.816 84.6945 114.653C87.3632 116.571 87.8198 119.335 85.8119 122.365C83.8002 125.422 81.0807 125.962 78.1367 124.54Z" fill="#F65F5F"/>
<path d="M19.4169 81.3124C17.2654 84.2281 14.6578 85.2485 11.7736 83.5391C8.91869 81.8473 8.36932 79.1004 10.3076 75.9677C12.2489 72.8516 15.0044 72.0235 17.8796 73.6833C20.7774 75.3714 21.087 78.0917 19.4169 81.3124Z" fill="#F65F5F"/>
<path d="M45.7108 131.853C43.5894 134.742 40.9615 135.794 38.0689 134.183C35.2124 132.579 34.6164 129.863 36.3294 126.638C37.964 123.558 41.6298 122.425 44.257 124.156C47.0141 125.98 47.3712 128.626 45.7108 131.853Z" fill="#F65F5F"/>
<path d="M88.2938 107.875C85.6958 105.867 85.1308 103.273 87.0059 100.134C88.796 97.1492 92.49 96.1812 95.0077 98.0821C97.6358 100.064 98.0331 102.836 95.9929 105.832C93.9158 108.865 91.1912 109.328 88.2938 107.875Z" fill="#F65F5F"/>
<path d="M28.3939 57.15C30.9484 59.2055 31.4893 61.8582 29.4122 64.8907C27.3283 67.934 24.5246 68.5847 21.7716 66.7776C18.9894 64.9529 18.6454 62.1392 20.6962 59.1055C22.7741 56.0292 25.4913 55.6207 28.3939 57.15Z" fill="#F65F5F"/>
<path d="M69.9944 55.0469C67.6264 58.1119 64.9775 59.0485 62.1505 57.2705C59.3332 55.4983 58.8703 52.7003 60.8867 49.6148C62.9031 46.5292 65.6999 45.7849 68.5277 47.5193C71.4043 49.283 71.5388 52.0451 69.9944 55.0469Z" fill="#F65F5F"/>
<path d="M86.5101 65.4386C84.3165 68.3142 81.7346 69.1881 78.8352 67.5874C76.0629 66.0632 75.4834 62.429 77.5838 59.6151C79.7586 56.684 82.4952 55.9917 85.2434 57.7664C88.0208 59.5588 88.2282 62.2911 86.5101 65.4386Z" fill="#F65F5F"/>
<path d="M5.02959 113.294C2.73738 111.485 1.98531 109.059 3.65937 106.299C5.33642 103.555 8.02136 102.73 10.5407 104.161C13.0698 105.597 13.6001 108.288 11.9396 111.026C10.285 113.798 7.71451 114.294 5.02959 113.294Z" fill="#F65F5F"/>
<path d="M24.7926 136.935C22.5462 135.139 21.7844 132.707 23.4652 129.936C25.1491 127.182 27.8602 126.358 30.3863 127.778C32.9252 129.221 33.4585 131.927 31.8009 134.682C30.1261 137.486 27.5489 137.993 24.7926 136.935Z" fill="#F65F5F"/>
<path d="M97.9568 111.945C99.922 113.675 100.514 116.034 98.9247 118.831C97.4781 121.361 93.6223 122.349 91.6263 120.689C89.426 118.862 89.0502 116.353 90.7471 113.621C92.1838 111.277 95.6842 110.486 97.9568 111.945Z" fill="#F65F5F"/>
<path d="M15.8202 67.6649C13.6386 70.2241 11.1608 71.1463 8.71803 69.5705C6.29483 68.0064 5.84985 65.3074 7.62867 62.6379C9.40071 59.9792 12.0986 59.2633 14.5451 60.812C17.0112 62.3724 17.0827 64.9788 15.8202 67.6649Z" fill="#F65F5F"/>
<path d="M81.5892 44.6068C83.8327 46.3865 84.5847 48.813 82.8911 51.561C81.214 54.3044 78.5193 55.1237 76.0066 53.6824C73.4842 52.2351 72.9637 49.5508 74.6242 46.8122C76.2984 44.0523 78.8591 43.5497 81.5892 44.6068Z" fill="#F65F5F"/>
<path d="M52.9035 44.5996C50.9438 47.0862 48.5073 48.0921 45.9766 46.6548C43.4625 45.2127 42.928 42.5482 44.5828 39.8188C46.2444 37.0788 48.9242 36.2638 51.4354 37.6894C53.9729 39.1161 54.2196 41.6807 52.9035 44.5996Z" fill="#F65F5F"/>
<path d="M61.8308 141.963C59.7073 144.409 57.2092 145.364 54.7471 143.776C52.3044 142.2 51.8535 139.468 53.6458 136.778C55.4411 134.103 58.1689 133.362 60.6281 134.933C63.1038 136.499 63.2475 139.119 61.8308 141.963Z" fill="#F65F5F"/>
<path d="M101.43 68.2345C103.677 70.0307 104.439 72.4631 102.758 75.2336C101.074 77.9876 98.3625 78.8117 95.8333 77.3751C93.2943 75.9326 92.7678 73.2152 94.4351 70.4659C96.0965 67.6836 98.6739 67.1763 101.43 68.2345Z" fill="#F65F5F"/>
<path d="M7.44852 90.6912C9.74433 92.6644 10.3973 95.1194 8.6031 97.792C6.83225 100.449 4.1392 101.181 1.69433 99.6334C-0.734009 98.0809 -1.16891 95.3894 0.589189 92.7097C2.37735 90.004 4.93188 89.6597 7.44852 90.6912Z" fill="#F65F5F"/>
<path d="M98.9459 90.8736C96.6995 89.0774 95.9444 86.6345 97.635 83.8699C99.3189 81.1159 102.03 80.2918 104.569 81.7343C107.108 83.1768 107.625 85.8883 105.967 88.6434C104.273 91.4351 101.686 91.9366 98.9459 90.8736Z" fill="#F65F5F"/>
<path d="M39.5189 47.7368C37.5088 50.2813 35.0656 51.2979 32.5416 49.8499C30.0275 48.4078 29.4998 45.7327 31.1546 43.0034C32.8162 40.2634 35.4892 39.459 38.0072 40.8739C40.5642 42.3124 40.771 44.8972 39.5189 47.7368Z" fill="#F65F5F"/>
<path d="M75.2656 138.783C73.1788 141.193 70.7913 142.037 68.2199 140.663C65.8829 139.431 65.3208 135.557 67.1609 133.322C69.189 130.877 71.7825 130.113 74.1748 131.746C76.5506 133.385 76.6883 135.972 75.2656 138.783Z" fill="#F65F5F"/>
<path d="M107.753 95.6081C110.007 97.3502 110.407 99.6087 108.605 102.188C106.772 104.794 104.387 105.211 102.087 103.604C99.9271 102.096 99.6556 99.8263 101.255 97.3745C102.984 94.7205 105.264 94.2988 107.753 95.6081Z" fill="#F65F5F"/>
<path d="M81.974 137.2C79.5989 135.414 79.0862 133.205 80.7971 130.6C82.5081 127.995 84.8378 127.367 87.2185 128.847C89.6088 130.332 89.9614 132.665 88.2963 135.284C86.5808 137.96 84.3024 138.294 81.974 137.2Z" fill="#F65F5F"/>
<path d="M-1.3686 85.8455C-3.5702 84.1058 -3.95747 81.8698 -2.14897 79.3232C-0.320161 76.7448 2.03489 76.3536 4.30796 77.9597C6.45116 79.4728 6.6837 81.7186 5.08487 84.1265C3.3469 86.7745 1.094 87.1536 -1.3686 85.8455Z" fill="#F65F5F"/>
<path d="M98.0109 55.2797C100.283 56.9296 100.813 59.1335 99.0715 61.765C97.3139 64.4013 94.9827 64.9247 92.6193 63.3967C90.4121 61.9628 90.0541 59.7444 91.5787 57.2621C93.2387 54.567 95.4813 54.0343 98.0109 55.2797Z" fill="#F65F5F"/>
<path d="M19.4801 52.8364C17.044 51.1468 16.4351 48.9832 18.1273 46.3222C19.8226 43.6779 22.1193 43.0601 24.5195 44.5514C26.7507 45.9261 27.1621 48.1031 25.7028 50.61C24.1112 53.3463 21.8822 53.8577 19.4801 52.8364Z" fill="#F65F5F"/>
<path d="M48.0976 144.859C46.0267 147.5 43.7554 148.119 41.4287 146.51C39.063 144.877 38.9192 142.448 40.7412 139.923C42.4587 137.541 44.7142 137.075 46.9493 138.467C49.4053 140.021 49.459 142.336 48.0976 144.859Z" fill="#F65F5F"/>
<path d="M8.49572 126.322C6.07789 124.54 5.58849 122.316 7.35869 119.702C9.13566 117.078 11.4727 116.588 13.8224 118.137C16.0159 119.592 16.3311 121.814 14.7968 124.29C13.1099 127.028 10.8473 127.401 8.49572 126.322Z" fill="#F65F5F"/>
<path d="M65.807 41.4103C63.8745 43.8542 61.6391 44.4804 59.3221 42.8772C56.9759 41.2564 56.8312 38.8713 58.6398 36.3675C60.3438 34.0068 62.573 33.539 64.7752 34.9403C67.199 36.4605 67.3421 38.7416 65.807 41.4103Z" fill="#F65F5F"/>
<path d="M95.5505 133.486C93.6751 131.722 93.1639 129.617 94.7976 127.452C96.381 125.344 98.6661 124.808 100.625 126.313C102.38 127.651 102.673 129.8 101.272 131.856C99.7385 134.097 97.6099 134.345 95.5505 133.486Z" fill="#F65F5F"/>
<path d="M-4.08332 72.0221C-5.96151 70.5804 -6.48119 68.5737 -4.97707 66.3148C-3.61132 64.2521 -1.5189 63.6584 0.410601 64.807C2.50602 66.0557 2.8911 68.2315 1.39674 70.4964C0.0280042 72.5425 -1.95909 72.9494 -4.08332 72.0221Z" fill="#F65F5F"/>
<path d="M94.4073 42.2761C96.1639 43.5266 96.8541 45.3711 95.6994 47.5902C94.4257 50.0175 92.2379 50.804 90.0778 49.6783C87.8982 48.5409 87.4682 46.3085 88.8942 44.0026C90.2051 41.8775 92.2094 41.4221 94.4073 42.2761Z" fill="#F65F5F"/>
<path d="M111.7 115.064C110.103 117.151 108.054 118.036 105.937 116.819C103.83 115.608 103.439 113.354 104.853 111.069C106.16 108.97 108.304 108.318 110.277 109.316C112.461 110.426 112.735 112.566 111.7 115.064Z" fill="#F65F5F"/>
<path d="M10.6313 48.0953C12.3752 49.3234 13.0596 51.1349 11.9115 53.3435C10.6514 55.7497 8.48964 56.5372 6.33925 55.4174C4.18588 54.2811 3.73847 52.0971 5.16453 49.791C6.4785 47.6824 8.44689 47.22 10.6313 48.0953Z" fill="#F65F5F"/>
<path d="M17.6561 137.497C16.0628 139.556 14.0173 140.414 11.9404 139.177C9.87327 137.946 9.4888 135.725 10.9245 133.468C12.245 131.391 14.3685 130.771 16.3178 131.784C18.4692 132.905 18.747 135.017 17.6561 137.497Z" fill="#F65F5F"/>
<path d="M78.9508 37.7168C77.5041 39.6728 75.594 40.5098 73.5689 39.5098C71.3515 38.4086 70.8153 36.2146 72.1961 33.8948C73.5739 31.5585 75.816 30.9216 77.9182 32.2038C79.8282 33.3848 80.0385 35.4118 78.9508 37.7168Z" fill="#F65F5F"/>
<path d="M28.4896 149.453C26.6425 147.941 26.0643 145.899 27.5547 143.662C29.0317 141.446 31.2778 140.886 33.2994 142.208C35.1356 143.418 35.5116 145.544 34.2376 147.632C32.838 149.939 30.7421 150.369 28.4896 149.453Z" fill="#F65F5F"/>
<path d="M72.1734 152.86C70.3199 151.507 69.9578 149.699 71.4401 147.559C72.784 145.616 74.5908 145.174 76.3927 146.289C78.3995 147.529 78.6413 149.442 77.1823 151.566C75.8444 153.542 74.0896 153.839 72.1734 152.86Z" fill="#F65F5F"/>
<path d="M113.824 66.1633C115.877 67.5632 116.365 69.3007 114.945 71.4922C113.666 73.4602 111.903 74.0025 110.061 72.9505C108.036 71.8032 107.684 69.9568 109.056 67.7796C110.345 65.7738 112.073 65.4761 113.824 66.1633Z" fill="#F65F5F"/>
<path d="M63.0364 149.488C64.763 150.765 65.2063 152.446 63.9563 154.475C62.5979 156.675 60.7263 157.24 58.7292 156.006C56.9176 154.884 56.5878 153.11 57.8116 151.079C59.1737 148.852 61.0031 148.439 63.0364 149.488Z" fill="#F65F5F"/>
<path d="M117.058 79.5784C119.111 80.9783 119.603 82.7323 118.175 84.9345C116.89 86.9131 115.12 87.466 113.258 86.4023C111.224 85.2491 110.86 83.3803 112.254 81.1877C113.533 79.176 115.275 78.857 117.058 79.5784Z" fill="#F65F5F"/>
<path d="M48.4406 30.606C47.0188 32.4592 45.32 33.07 43.4911 31.9527C41.4767 30.7235 41.2483 28.7887 42.7432 26.7144C44.1101 24.7987 45.9357 24.4558 47.6976 25.6359C49.4791 26.8278 49.5792 28.5821 48.4406 30.606Z" fill="#F65F5F"/>
<path d="M111.711 57.8106C110.427 59.5112 108.782 60.2283 107.081 59.3351C105.187 58.3407 104.816 56.4381 106.102 54.4586C107.26 52.6815 109.061 52.2063 110.725 53.1799C112.402 54.1759 112.538 55.8936 111.711 57.8106Z" fill="#F65F5F"/>
<path d="M61.731 27.2384C60.3859 28.8435 58.738 29.5441 57.1005 28.5716C55.2969 27.499 54.9663 25.576 56.3198 23.6815C57.5214 22.0046 59.333 21.5353 60.9359 22.6048C62.529 23.6684 62.6201 25.3732 61.731 27.2384Z" fill="#F65F5F"/>
<path d="M85.7346 149.49C84.157 148.171 83.6882 146.445 85.0582 144.503C86.2763 142.779 88.0575 142.292 89.6835 143.302C91.4784 144.428 91.7833 146.305 90.4395 148.249C89.2176 150 87.5193 150.272 85.7346 149.49Z" fill="#F65F5F"/>
<path d="M30.1097 35.2775C28.2775 33.8488 27.844 32.1739 29.136 30.1847C30.5566 27.9934 32.4714 27.5725 34.3646 28.9054C36.0986 30.1276 36.2399 31.9649 34.9028 33.8974C33.5388 35.8726 31.7931 36.0274 30.1097 35.2775Z" fill="#F65F5F"/>
<path d="M116.27 99.4893C114.832 98.0776 114.403 96.3319 115.867 94.4759C117.139 92.8577 118.946 92.4158 120.494 93.5261C122.176 94.746 122.415 96.6421 120.984 98.4886C119.701 100.145 117.997 100.383 116.27 99.4893Z" fill="#F65F5F"/>
<path d="M0.336006 127.134C-1.06755 128.703 -2.71083 129.333 -4.35726 128.311C-5.99393 127.295 -6.34342 125.508 -5.21548 123.713C-3.95887 121.716 -2.0414 121.207 -0.299679 122.42C1.26029 123.493 1.32724 125.257 0.336006 127.134Z" fill="#F65F5F"/>
<path d="M49.2671 152.72C50.9805 154.165 51.4793 155.865 50.1522 157.803C48.9672 159.518 47.1892 160.021 45.5663 159.028C43.7776 157.935 43.4757 156.074 44.7667 154.129C45.9457 152.381 47.6581 152.236 49.2671 152.72Z" fill="#F65F5F"/>
<path d="M21.3903 36.9011C19.9633 38.4863 18.2966 39.1314 16.681 38.0395C15.0878 36.9759 14.8014 35.1533 16.0046 33.389C17.2107 31.6412 19.0193 31.1553 20.6388 32.22C22.2417 33.2895 22.3222 35.0322 21.3903 36.9011Z" fill="#F65F5F"/>
<path d="M113.939 127.982C112.656 129.639 111.182 130.15 109.673 129.211C108.163 128.271 107.886 126.689 108.962 125.04C110.037 123.391 111.611 122.955 113.128 123.884C114.654 124.819 114.758 126.355 113.939 127.982Z" fill="#F65F5F"/>
<path d="M36.4031 160.186C35.3356 161.737 34.1285 162.275 32.8171 161.662C31.3164 160.963 30.9036 159.595 31.8568 157.99C32.8034 156.395 34.208 156.034 35.6198 156.915C36.8852 157.707 36.8654 158.991 36.4031 160.186Z" fill="#F65F5F"/>
<path d="M14.9437 147.531C16.3534 145.803 17.8341 145.429 19.2694 146.486C20.7339 147.56 20.7642 149.17 19.565 150.715C18.5005 152.092 17.0604 152.402 15.7009 151.523C14.1657 150.539 14.1564 149.045 14.9437 147.531Z" fill="#F65F5F"/>
<path d="M2.95086 140.012C1.86003 141.387 0.564757 141.873 -0.810533 140.956C-1.99052 140.156 -2.21039 138.845 -1.36385 137.514C-0.395407 135.991 1.00646 135.614 2.36899 136.509C3.57229 137.293 3.63817 138.57 2.95086 140.012Z" fill="#F65F5F"/>
<path d="M74.4746 23.6411C73.462 24.872 72.2321 25.3827 70.9852 24.6457C69.5625 23.8027 69.3322 22.338 70.4246 20.8753C71.3552 19.6244 72.7135 19.2943 73.919 20.1389C75.102 20.9552 75.1746 22.2217 74.4746 23.6411Z" fill="#F65F5F"/>
<path d="M91.3595 34.0066C89.9725 35.7628 88.4874 36.0164 87.0561 34.9325C85.7644 33.9476 85.6725 32.478 86.7219 31.0191C87.9368 29.3212 89.4767 29.1301 90.908 30.214C92.223 31.1836 92.1775 32.6144 91.3595 34.0066Z" fill="#F65F5F"/>
<path d="M107.852 44.0189C106.542 45.5271 105.189 45.9341 103.904 44.9383C102.81 44.0875 102.617 42.7338 103.558 41.445C104.615 39.9752 106.032 39.6803 107.33 40.6548C108.467 41.502 108.4 42.8173 107.852 44.0189Z" fill="#F65F5F"/>
<path d="M7.35573 39.616C6.3628 40.8586 5.12623 41.3799 3.88239 40.6595C2.44626 39.8378 2.20923 38.3839 3.27902 36.893C4.19684 35.6198 5.54821 35.3003 6.76418 36.107C7.9666 36.9351 8.03921 38.2015 7.35573 39.616Z" fill="#F65F5F"/>
<path d="M123.976 110.994C122.794 112.639 121.523 113.109 120.097 112.25C118.857 111.502 118.563 110.264 119.312 108.875C120.15 107.303 121.473 106.73 122.973 107.473C124.476 108.232 124.564 109.581 123.976 110.994Z" fill="#F65F5F"/>
<path d="M103.389 144.44C102.346 145.888 101.068 146.369 99.6422 145.51C98.4022 144.762 98.1087 143.525 98.8574 142.135C99.695 140.563 101.025 139.98 102.518 140.733C103.985 141.485 104.198 142.807 103.389 144.44Z" fill="#F65F5F"/>
</g>
<defs>
<filter id="filter0_f_381_817" x="-21.8457" y="15.6709" width="150.159" height="150.238" filterUnits="userSpaceOnUse" color-interpolation-filters="sRGB">
<feFlood flood-opacity="0" result="BackgroundImageFix"/>
<feBlend mode="normal" in="SourceGraphic" in2="BackgroundImageFix" result="shape"/>
<feGaussianBlur stdDeviation="2" result="effect1_foregroundBlur_381_817"/>
</filter>
</defs>
</svg>
