<svg width="257" height="9" viewBox="0 0 257 9" fill="none" xmlns="http://www.w3.org/2000/svg">
<path d="M37.5036 -1.73345L38.1464 -1.8415L36.8956 -1.99642L37.4951 -2.10981C38.0964 -2.10878 38.8754 -1.93886 39.2993 -2.02915C39.3511 -2.11656 38.6964 -2.14461 38.5293 -2.21426C38.3815 -2.28565 38.2609 -2.35656 38.1688 -2.42617C38.4963 -2.42542 38.8562 -2.40858 39.2274 -2.37665C39.7267 -2.3245 40.2163 -2.29914 40.6424 -2.30339C41.5137 -2.28931 42.3555 -2.30336 43.3027 -2.30026L42.9876 -2.51064L44.2084 -2.46142C44.3378 -2.44539 44.492 -2.47117 44.6192 -2.45134C45.6772 -2.28358 46.1249 -2.375 46.6328 -2.4508C46.737 -2.47041 46.8624 -2.48506 47.0058 -2.49435C48.4173 -2.45416 49.69 -2.21902 50.9611 -2.0983C51.2003 -2.06748 51.4298 -2.02792 51.6332 -1.98243C52.0753 -1.89398 52.5671 -1.82176 53.0636 -1.77239C53.56 -1.72302 54.0453 -1.69807 54.4751 -1.69981C55.4254 -1.70176 56.4991 -1.64326 57.5922 -1.52996C57.9173 -1.49264 58.2425 -1.46802 58.5473 -1.45767C58.852 -1.44732 59.1296 -1.45146 59.3622 -1.46984L60.1012 -1.34975C60.4216 -1.39848 60.8278 -1.42522 61.2952 -1.42833C61.7627 -1.43145 62.2815 -1.41089 62.8204 -1.36789C63.3946 -1.32125 63.9779 -1.28981 64.5737 -1.24049C65.8044 -1.14622 67.0022 -1.08856 68.1298 -1.06931C69.809 -1.01228 71.4496 -0.968179 73.1437 -0.897072C74.2035 -0.862749 75.236 -0.843872 76.2352 -0.840537C77.4322 -0.827112 78.7269 -0.762119 80.0569 -0.648698C79.9938 -0.542282 79.4106 -0.573721 79.0192 -0.577322C77.7565 -0.595009 76.4642 -0.640842 75.1651 -0.675273C74.5799 -0.688712 74.0107 -0.693803 73.461 -0.690507C72.542 -0.694919 71.5732 -0.723273 70.5712 -0.775087C68.9884 -0.8321 67.4561 -0.859505 65.99 -0.857024C65.8751 -0.852808 65.7697 -0.84534 65.6758 -0.834741C65.6562 -0.825562 65.6524 -0.813985 65.6646 -0.801126C65.6768 -0.788265 65.7048 -0.774546 65.7457 -0.761289C65.7866 -0.748032 65.8392 -0.735679 65.8983 -0.725409C65.9575 -0.715139 66.0214 -0.707293 66.0837 -0.702633C66.666 -0.630515 67.2914 -0.553058 67.8405 -0.542161C67.8617 -0.541347 67.8843 -0.539488 67.9067 -0.536716C67.9291 -0.533945 67.9507 -0.53033 67.9699 -0.526136C69.1992 -0.373888 70.2099 -0.399652 71.1675 -0.374882C72.7573 -0.307936 74.2898 -0.276665 75.7419 -0.281543C75.9614 -0.281211 76.1984 -0.272509 76.4443 -0.25575C77.9652 -0.187815 79.3873 -0.180215 80.6441 -0.233298C81.1613 -0.246746 81.6422 -0.276937 82.1981 -0.277442C82.5404 -0.27952 82.8385 -0.298785 83.0742 -0.334085C83.31 -0.369385 83.4786 -0.41999 83.5699 -0.482856C83.8044 -0.449758 84.0425 -0.42026 84.2815 -0.394716C84.4243 -0.380111 84.5612 -0.37623 84.6645 -0.383873C84.7678 -0.391517 84.83 -0.410111 84.8384 -0.435895C84.8812 -0.508106 84.5554 -0.544369 84.2728 -0.575292C84.4433 -0.590779 84.6353 -0.599889 84.8445 -0.602405C86.0221 -0.618904 87.2853 -0.59943 88.6066 -0.544409C89.6324 -0.47855 90.4512 -0.532155 91.5305 -0.439281C91.6599 -0.423255 91.7664 -0.446776 91.8855 -0.452424C92.1961 -0.482166 92.5829 -0.48885 93.0126 -0.471895C93.4422 -0.454939 93.9016 -0.414852 94.3511 -0.355112C94.9108 -0.518323 96.1198 -0.331869 97.0127 -0.315112C97.2876 -0.232111 96.9722 -0.246702 96.9586 -0.223899C96.9451 -0.201095 96.9586 -0.223903 96.8508 -0.237259C95.9593 -0.119715 94.738 -0.0940841 93.3581 -0.163969C93.1029 -0.163679 92.8598 -0.158323 92.631 -0.147956C92.2845 -0.133281 91.8939 -0.134746 91.4761 -0.152288C91.0197 -0.165171 90.6004 -0.159052 90.2385 -0.134228C90.0303 -0.134631 89.8542 -0.122196 89.7266 -0.0980641C89.599 -0.0739315 89.524 -0.0388867 89.5086 0.00381443C89.6476 0.0367334 89.8018 0.0668554 89.965 0.0929825C90.8174 0.196146 91.6674 0.238847 92.3478 0.212686C93.532 0.167611 94.9412 0.211598 96.2004 0.196209C97.0516 0.189975 97.9574 0.207732 98.9006 0.249148C98.9006 0.249148 98.8758 0.290954 98.8735 0.294754C98.9851 0.312856 99.1023 0.327378 99.2186 0.337492C99.2186 0.337492 99.2186 0.337493 99.2299 0.318489C99.1782 0.300241 99.1081 0.283074 99.0277 0.268975L98.7473 0.234251C98.9379 0.225214 99.1159 0.198309 99.3145 0.214748C99.733 0.245288 100.133 0.258181 100.49 0.252661C100.848 0.24714 101.155 0.223319 101.394 0.182626C101.817 0.130472 102.344 0.106754 102.94 0.113004C103.396 0.107311 103.836 0.0950729 104.258 0.0763532C104.258 0.0763532 104.285 0.0307506 104.484 0.00651142C104.295 -0.0233831 104.098 -0.0477948 103.902 -0.065603C103.049 -0.110093 102.193 -0.150784 101.355 -0.181201C101.046 -0.184487 100.756 -0.179391 100.489 -0.166011C99.7516 -0.150354 98.9227 -0.172576 98.0511 -0.231379C98.0511 -0.231379 97.8786 -0.252746 97.7923 -0.263431C98.0369 -0.36368 98.8802 -0.263318 99.2214 -0.33121C99.429 -0.329974 99.7943 -0.321438 99.7818 -0.339311C99.7533 -0.363161 99.7499 -0.385318 99.7718 -0.404192C99.7937 -0.423066 99.8404 -0.438191 99.9084 -0.44848C99.9765 -0.458768 100.064 -0.463968 100.165 -0.463704C100.267 -0.463439 100.379 -0.457716 100.494 -0.446949C101.454 -0.388704 102.358 -0.372506 103.151 -0.399349C103.451 -0.398831 103.788 -0.381568 104.087 -0.377248C104.27 -0.372046 104.436 -0.37494 104.578 -0.385768C105.299 -0.465517 106.269 -0.471341 107.343 -0.402365C107.861 -0.377567 108.346 -0.374251 108.772 -0.392587C109.075 -0.395869 109.203 -0.339169 109.419 -0.312459L110.335 -0.256154L109.159 -0.185603C109.41 -0.0239189 109.61 0.0293933 110.021 0.0394668C110.62 0.0546773 111.203 0.0615499 111.768 0.06004C112.185 0.0587104 112.53 0.0238911 113.095 0.0857364C113.195 0.0958237 113.291 0.0990891 113.368 0.0949832C114.029 0.040079 114.826 0.0274779 115.704 0.0580411C116.159 -0.0447737 116.933 0.0551894 117.649 0.135732C117.88 0.0582859 117.461 0.0227347 117.212 -0.0245198C117.811 -0.019683 118.414 -0.0224451 119.033 -0.0111361C119.218 -0.0152533 119.431 -0.00821069 119.654 0.00943651C119.876 0.0270837 120.102 0.0548518 120.315 0.0905718C120.418 0.113652 120.543 0.131022 120.663 0.139075C120.784 0.147129 120.89 0.14525 120.961 0.133829C121.281 0.100141 121.795 0.131169 122.061 0.0742667C122.155 0.0611801 122.29 0.0593534 122.441 0.0691047C122.592 0.078857 122.75 0.0995569 122.886 0.127494C122.737 0.136211 122.604 0.149936 122.491 0.16837C122.085 0.228249 122.234 0.328299 122.75 0.473757C123.542 0.465757 124.351 0.46803 125.084 0.440614C125.494 0.416005 125.995 0.423698 126.532 0.46283C127.069 0.501961 127.621 0.570979 128.125 0.662123C128.307 0.697171 128.515 0.721444 128.707 0.730125C128.899 0.738807 129.062 0.731258 129.162 0.708976C129.224 0.683206 129.243 0.650593 129.218 0.613962L128.7 0.54986C128.7 0.54986 128.721 0.515655 128.725 0.508053L129.469 0.502307C129.863 0.502107 130.274 0.512182 130.646 0.509312C131.192 0.490223 131.816 0.500864 132.479 0.540572C133.091 0.581289 133.692 0.612067 134.277 0.632633C134.843 0.653802 135.253 0.586317 135.792 0.57554C136.199 0.567416 136.648 0.576098 137.119 0.601245C137.934 0.645845 138.682 0.645928 139.295 0.601485C140.01 0.840934 140.357 0.879865 141.021 0.815164L141.332 0.79668L141.418 0.848037L141.656 0.836744C142.102 0.826685 142.548 0.816629 143.013 0.813041C143.659 0.835263 144.358 0.895048 145.039 0.98656C145.169 1.00259 145.345 1.05704 145.459 1.09967C145.572 1.1423 145.82 1.2709 146.002 1.35462C145.804 1.41573 145.584 1.47417 145.426 1.54443C145.411 1.55643 145.412 1.57075 145.431 1.58622C145.45 1.60169 145.485 1.61789 145.535 1.63352C145.584 1.64914 145.646 1.66376 145.715 1.67619C145.784 1.68862 145.859 1.69852 145.933 1.70509C146.078 1.71926 146.221 1.72871 146.356 1.73304C147.023 1.74051 147.661 1.73496 148.265 1.71643C148.485 1.69029 148.787 1.68781 149.122 1.70938C149.457 1.73095 149.807 1.77534 150.115 1.83551C150.905 1.79938 151.823 1.81006 152.805 1.86678C153.844 1.83228 155.099 1.90204 156.07 1.82646C156.047 1.86446 156.148 1.9299 156.287 1.9676C156.508 2.02486 156.759 2.07793 157.028 2.12456L159.08 2.2156C159.157 2.26242 159.253 2.30981 159.367 2.35715C159.445 2.39456 159.581 2.43115 159.745 2.45919C159.91 2.48723 160.091 2.5045 160.25 2.50735C160.658 2.52122 161.001 2.4902 161.488 2.56684C160.738 2.63928 159.726 2.62966 158.634 2.53968C157.607 2.47125 156.619 2.43705 155.707 2.43835C155.407 2.43783 155.011 2.44183 154.917 2.48322C154.709 2.60021 154.164 2.58172 153.529 2.56014C153.029 2.53652 152.574 2.53917 152.198 2.56788C151.823 2.59658 151.539 2.65053 151.37 2.72527C151.328 2.79748 151.43 2.85912 151.868 2.90114L153.69 3.06963C153.958 3.04797 154.213 3.02232 154.453 2.99281C154.857 2.9536 155.356 2.94284 155.911 2.96136C156.466 2.97988 157.063 3.02718 157.654 3.09958C157.955 3.13698 158.257 3.17437 158.476 3.1566C158.668 3.13619 158.845 3.11176 159.006 3.08347C159.038 3.06452 159.051 3.0427 159.044 3.01886C159.16 3.02995 159.277 3.04436 159.389 3.0616C160.288 3.26274 160.985 3.25926 161.618 3.20709C161.789 3.19158 161.919 3.16693 162.093 3.14762C162.266 3.12831 162.327 3.10325 162.485 3.11054C163.742 3.17651 164.105 2.95618 165.164 2.96503C165.216 2.95643 165.248 2.94356 165.257 2.92762C165.267 2.91168 165.253 2.89318 165.218 2.87382C165.143 2.85634 165.057 2.84131 164.966 2.83011C164.876 2.81891 164.785 2.81189 164.701 2.80972C164.213 2.78144 163.782 2.79011 163.482 2.83424C163.27 2.85228 163.045 2.86664 162.809 2.87727L161.748 2.55821C162.776 2.58745 163.748 2.58726 164.642 2.55764C164.837 2.541 165.167 2.56967 165.441 2.57511L167.461 2.60494C167.876 2.60741 168.23 2.55739 168.809 2.67398C168.809 2.67398 169.191 2.69278 169.293 2.67687C169.395 2.66094 169.848 2.56193 170.117 2.49743C170.431 2.51582 170.864 2.56544 171.059 2.54881C171.4 2.50794 171.695 2.45555 171.939 2.39258L173.159 2.48248C173.157 2.56233 173.113 2.63746 173.026 2.70671C172.931 2.7735 172.934 2.85367 173.035 2.94067C173.137 3.02766 173.333 3.11902 173.609 3.20727L174.813 3.67466C175.01 3.70596 175.219 3.72703 175.414 3.73501C175.608 3.74299 175.777 3.73749 175.898 3.71925C176.416 3.66513 176.997 3.62282 177.515 3.56869C178.184 3.6515 178.012 3.78524 178.498 3.90255L180.072 4.09753C180.312 4.27821 180.557 4.4513 179.827 4.51179C179.682 4.52237 179.779 4.5916 179.647 4.62005C180.215 4.75565 180.839 4.79624 181.414 4.87976C181.641 4.93982 181.831 5.0034 181.974 5.06743C182.132 5.16383 182.451 5.26231 182.863 5.34159C183.275 5.42088 183.747 5.47461 184.177 5.49118C184.898 5.54194 185.636 5.61817 186.358 5.71647C186.605 5.75065 186.859 5.77556 187.102 5.78951C187.345 5.80346 187.573 5.80612 187.769 5.79733C188.468 5.78186 189.059 5.72863 189.505 5.64112C189.946 5.56686 190.54 5.53107 191.234 5.53699C192.42 5.6839 192.659 5.90526 193.377 6.10024L192.137 6.1221C192.092 6.19811 192.174 6.29395 191.666 6.29219C191.157 6.29044 191.415 6.36317 191.58 6.43661C191.638 6.47356 191.751 6.51156 191.901 6.54419C192.05 6.57682 192.227 6.60207 192.4 6.61566L193.455 6.70967C193.83 6.74545 194.192 6.76072 194.502 6.75382C194.813 6.74692 195.059 6.71812 195.215 6.67056C195.393 6.6254 195.64 6.59486 195.939 6.5808C196.321 6.54396 196.634 6.48917 196.869 6.41851L198.359 6.52146C198.422 6.45046 198.627 6.40067 198.938 6.38052C199.25 6.36036 199.649 6.37108 200.068 6.41086L201.072 6.47405C202.189 6.54299 202.434 6.5203 202.761 6.3201L201.422 5.96251C201.616 5.86832 201.804 5.78553 201.992 5.70274C201.659 5.58494 201.213 5.47351 200.702 5.37978C200.225 5.27907 199.734 5.18152 199.232 5.08753C198.687 4.99148 198.111 4.90796 197.435 4.79968C197.317 4.76465 197.145 4.7026 196.926 4.64282C196.706 4.58472 196.477 4.52777 196.24 4.47219C196.285 4.39618 196.325 4.32777 196.239 4.23953C196.655 4.26769 197.086 4.31693 197.491 4.38282C197.897 4.44871 198.265 4.52917 198.562 4.61696C198.611 4.63253 198.673 4.64715 198.741 4.65984C198.809 4.67253 198.883 4.68299 198.958 4.69051C199.69 4.74445 200.04 4.85713 200.398 4.9953C200.639 5.06592 200.949 5.12865 201.287 5.17476C201.934 5.25489 202.567 5.35783 203.186 5.44669C203.375 5.4763 203.572 5.50067 203.768 5.5188C204.415 5.57645 205.065 5.65706 205.687 5.75653C205.89 5.78181 206.085 5.81526 206.255 5.8541C206.426 5.89293 206.567 5.93601 206.666 5.97975C206.512 6.02766 206.429 6.08815 206.422 6.15755C206.395 6.20315 206.849 6.29613 207.064 6.36352C207.279 6.4309 206.857 6.39915 206.715 6.40593C206.128 6.41896 206.019 6.44628 206.371 6.59585C206.488 6.64288 206.566 6.68994 206.599 6.73409C206.633 6.77825 206.621 6.81857 206.566 6.85255C206.482 6.99317 206.229 7.10862 206.055 7.24616C206.325 7.33677 206.777 7.43353 206.826 7.5457C206.85 7.57058 206.9 7.59694 206.973 7.62288C207.045 7.64882 207.139 7.67368 207.247 7.69567C207.53 7.74314 207.789 7.79992 208.001 7.86159C208.213 7.92326 208.374 7.98817 208.471 8.05131C208.503 8.07742 208.579 8.10512 208.686 8.12886C208.792 8.1526 208.92 8.17062 209.043 8.17931C209.191 8.18997 209.324 8.18857 209.414 8.17538C209.503 8.16219 209.543 8.13822 209.525 8.10843C209.529 8.05247 209.509 7.99414 209.467 7.93392C209.491 7.89211 209.516 7.85031 209.418 7.78107C209.86 7.80634 210.324 7.85697 210.76 7.92748C211.196 7.99799 211.587 8.08567 211.89 8.18099C212.225 8.2796 212.534 8.38315 212.905 8.49851C212.829 8.62773 212.829 8.62773 213.619 8.85619L217.813 8.9676L218.672 9.11892C219.474 9.25082 219.664 9.24179 220.168 9.17359L220.506 9.10949C221.218 9.19763 222.038 9.29914 222.483 9.13397C222.627 9.24162 222.722 9.27779 222.689 9.29412C222.476 9.45298 222.107 9.58778 221.596 9.69316C221.465 9.71781 221.374 9.7554 221.222 9.77738C220.732 9.90144 220.618 10.0931 220.904 10.3133C221.046 10.4107 221.252 10.5104 221.516 10.6093C221.13 10.7465 220.619 10.8602 219.996 10.9473C219.467 11.0147 219.032 11.105 218.703 11.2155C218.407 11.3269 217.964 11.4107 217.399 11.462C217.113 11.4838 216.904 11.5269 216.793 11.5868C216.76 11.7491 216.836 11.9229 217.019 12.1043C217.053 12.1595 217.151 12.2191 217.304 12.2785C217.458 12.3379 217.663 12.3954 217.904 12.4465C217.904 12.4465 218.02 12.4853 218.075 12.5085C218.122 12.7051 217.948 12.8783 217.566 13.0166C217.503 13.0558 217.375 13.0841 217.195 13.0985C217.015 13.1129 216.791 13.1128 216.545 13.0982C216.027 13.0748 215.542 13.0719 215.041 13.0587C214.5 13.0401 214.024 13.0548 213.663 13.1012C213.301 13.1476 213.068 13.224 212.986 13.3224C212.981 13.3503 212.965 13.3769 212.939 13.4022C212.924 13.4152 212.915 13.4292 212.914 13.444L214.066 13.7661L212.763 13.8944C212.686 14.0236 213.312 14.1011 213.625 14.197L213.432 14.2506C213.182 14.2809 212.846 14.2229 212.542 14.1893L212.24 14.1519L212.204 14.2127C212.016 14.2955 211.33 14.2025 211.063 14.2632C210.796 14.3239 210.986 14.3924 211.387 14.4583C211.666 14.5074 211.965 14.5464 212.262 14.5727C212.559 14.5989 212.847 14.6115 213.103 14.6097C213.256 14.6032 213.383 14.5883 213.476 14.5661C214.017 14.4714 214.614 14.39 215.264 14.3225C215.762 14.2618 216.386 14.2361 217.091 14.2469C217.298 14.2423 217.548 14.2567 217.797 14.2875C218.045 14.3183 218.276 14.3635 218.45 14.4152L218.815 14.4237C218.815 14.4237 219.015 14.477 218.987 14.4858C218.848 14.6437 219.009 14.8368 219.448 15.0365L219.067 15.0545C218.522 15.036 218.867 15.1563 218.786 15.2156C218.399 15.2044 217.896 15.1544 217.713 15.2295L217.438 15.2241L217.546 15.2374L217.676 15.2128L218.189 15.3252C217.946 15.3441 217.77 15.3672 217.556 15.3773C217.437 15.3862 217.343 15.4018 217.279 15.4233C217.214 15.4447 217.181 15.4716 217.181 15.5022C217.181 15.5494 217.117 15.5891 216.995 15.6175C216.873 15.6459 216.697 15.6622 216.483 15.6646C216.227 15.6657 216.081 15.7169 215.932 15.7351L216.582 16.0441C216.582 16.0441 216.258 16.004 216.434 16.0585L216.457 16.0205L216.851 16.0978C217.135 16.1656 217.333 16.182 217.501 16.1335C217.669 16.0849 217.631 16.1495 217.711 16.1309C217.682 16.1803 217.499 16.2148 217.343 16.2444C217.162 16.2676 216.958 16.2847 216.734 16.2954C217.137 16.5127 217.157 16.5192 216.567 16.5767C215.977 16.6342 216.181 16.7206 215.687 16.7329C215.194 16.7452 215.755 16.8922 216.085 16.9209C216.33 16.9397 216.58 16.9691 216.817 17.0069C217.054 17.0448 217.274 17.0902 217.46 17.1401L217.361 17.3073C217.216 17.2935 217.07 17.2755 216.93 17.2539C216.452 17.1621 216.017 17.0756 215.592 17.129L215.794 17.256L214.31 17.1824C214.348 17.2776 214.575 17.3861 214.941 17.4849C214.886 17.5392 214.852 17.5963 214.84 17.6559C214.815 17.6977 214.668 17.6714 214.573 17.6759C214.233 17.6829 213.954 17.7113 213.761 17.7584C213.567 17.8056 213.465 17.8702 213.463 17.9465C213.425 18.0111 213.948 18.1452 214.274 18.1407C215.09 18.1536 215.972 18.2033 216.873 18.2872C217.422 18.2981 217.5 18.1282 218.403 18.2441C218.421 18.3226 218.305 18.3861 218.073 18.4251C217.841 18.4641 217.506 18.4764 217.118 18.4602C217.338 18.6345 218.562 18.6799 218.616 18.862C218.311 18.8491 217.985 18.8189 217.671 18.7742C217.356 18.7295 217.064 18.672 216.822 18.6072C216.77 18.5913 216.705 18.5766 216.632 18.5645C216.559 18.5524 216.481 18.5433 216.406 18.538C216.331 18.5327 216.26 18.5315 216.201 18.5343C216.141 18.5372 216.095 18.5441 216.066 18.5544C216.236 18.6203 216.422 18.6964 216.634 18.7676C216.847 18.8388 216.898 18.8696 217.051 18.8845C218.194 19.026 218.738 19.281 219.727 19.4483C219.985 19.4804 220.018 19.5823 219.793 19.5708C219.579 19.5593 219.386 19.5608 219.234 19.5751C219.082 19.5895 218.979 19.6161 218.934 19.6521C218.769 19.6941 218.562 19.7275 218.32 19.7514C219.334 20.0131 220.543 20.2443 221.834 20.4233C222.078 20.4586 222.333 20.4802 222.561 20.4848C223.282 20.4851 224.046 20.5058 224.84 20.5467C225.121 20.5578 225.381 20.5568 225.605 20.5436C226.342 20.5124 226.926 20.5807 227.46 20.7733L228.344 21.0786C228.315 21.128 228.166 21.1831 228.052 21.2587L228.743 21.4217L234.012 21.0462L235.069 21.4098L236.586 21.3896C236.702 21.4001 236.819 21.4145 236.931 21.4323C237.238 21.5396 237.478 21.6428 237.811 21.7452C238.143 21.8476 238.738 21.86 239.152 21.9807C239.567 22.1015 239.982 22.1039 240.495 22.1756C240.544 22.2691 240.494 22.3532 240.349 22.4227C240.302 22.5025 240.041 22.5518 239.996 22.6278C240.001 22.7046 239.904 22.7698 239.714 22.8175C239.524 22.8653 239.247 22.8939 238.908 22.901C237.959 23.0646 236.814 23.181 235.508 23.2469C235.394 23.2517 235.299 23.2627 235.229 23.2794C235.159 23.296 235.117 23.3179 235.104 23.3437C235.106 23.4182 235.019 23.4827 234.849 23.5322C234.679 23.5818 234.432 23.6153 234.124 23.6302C234.042 23.6332 233.98 23.6426 233.946 23.6571C233.829 23.6665 233.744 23.6845 233.699 23.7093C233.654 23.7341 233.65 23.7649 233.688 23.7988C233.726 23.8326 233.805 23.8684 233.916 23.9025C234.028 23.9367 234.169 23.9681 234.325 23.9938C234.552 24.0351 234.783 24.0747 235.019 24.1123C235.005 24.1351 234.772 24.1388 234.806 24.1594C234.898 24.2249 234.919 24.2864 234.868 24.3388C234.817 24.3912 234.695 24.4332 234.511 24.4614L235.77 24.9927C236.534 25.0663 237.284 25.1911 237.877 25.3434C237.878 25.3684 237.844 25.3893 237.778 25.4041C237.713 25.4189 237.618 25.427 237.503 25.4277C237.196 25.4385 236.905 25.4597 236.574 25.4717C236.372 25.4807 236.203 25.5004 236.079 25.5298C235.954 25.5592 235.875 25.5976 235.848 25.6428L236.587 25.8405C236.35 25.8886 236.175 25.9117 236.018 25.9413C236.107 26.0034 236.259 26.0677 236.464 26.1291C236.668 26.1905 236.919 26.2474 237.197 26.2954C237.272 26.3053 237.348 26.3126 237.421 26.3167C237.494 26.3209 237.563 26.3218 237.623 26.3196C238.195 26.2518 238.865 26.3715 239.516 26.4847C240.166 26.5979 240.519 26.6661 241 26.7541L241.919 26.7659C242.151 26.8076 242.359 26.8566 242.525 26.9091C242.69 26.9615 242.81 27.0159 242.874 27.0679C242.824 27.1515 242.389 27.1056 242.129 27.1143C241.513 27.1663 240.702 27.1552 239.833 27.0828C239.617 27.0561 239.396 27.0777 239.186 27.0802C238.733 27.0906 238.298 27.1076 237.883 27.1309C237.609 27.1527 237.353 27.1796 237.117 27.2116C237.054 27.318 238.047 27.4002 237.484 27.4528C237.678 27.4768 237.75 27.5103 237.85 27.4982C238.49 27.5673 239.119 27.6014 239.667 27.5967C240.717 27.582 241.91 27.6305 243.148 27.7382C244.484 27.8498 245.765 27.8966 246.887 27.8749C247.314 27.8736 247.791 27.8964 248.282 27.9417C248.862 28.0043 249.438 28.0437 249.973 28.0572C250.15 28.0577 250.347 28.0684 250.549 28.0884C250.75 28.1083 250.95 28.1371 251.132 28.1722C251.116 28.1988 250.943 28.2181 250.981 28.2311C251.535 28.4301 251.759 28.6374 252.611 28.8408C253.193 28.9129 253.861 28.9957 254.242 28.9001C254.623 28.8045 254.487 28.7223 253.729 28.4775C253.893 28.474 254.091 28.4854 254.288 28.5098C254.485 28.5343 254.669 28.5701 254.807 28.6111L255.462 28.7942L256.053 28.9694C256.001 29.0568 255.961 29.1252 255.918 29.1974C255.85 29.2741 255.925 29.3675 256.13 29.4644C256.254 29.5173 256.362 29.5702 256.453 29.6227C256.822 29.8325 256.929 30.0308 256.762 30.1953C256.441 30.432 255.994 30.6496 255.427 30.8459C254.828 31.0369 254.5 31.2778 254.006 31.4859C253.754 31.5806 253.448 31.6655 253.092 31.7398C252.415 31.9048 251.674 32.0619 250.995 32.2307C250.316 32.3996 249.55 32.5209 248.796 32.66C247.674 32.8252 246.461 32.9679 245.163 33.0872C244.361 33.1918 243.536 33.2936 242.794 33.4138C241.917 33.5493 240.886 33.6465 239.728 33.7032C238.706 33.7711 237.792 33.8714 237.005 34.0023C236.922 34.0165 236.857 34.0345 236.811 34.0558C236.669 34.1893 236.272 34.2834 235.68 34.3237C235.716 34.3628 235.762 34.4025 235.818 34.4427C235.9 34.4907 235.917 34.5355 235.867 34.5715C235.817 34.6075 235.702 34.6329 235.536 34.6445C235.063 34.6775 234.669 34.7337 234.373 34.8104C234.264 34.8297 234.197 34.8578 234.176 34.8922C234.156 34.9266 234.183 34.9664 234.256 35.0081C234.32 35.051 234.325 35.0905 234.269 35.1215C234.214 35.1524 234.101 35.1734 233.945 35.1817C233.544 35.2223 233.115 35.255 232.66 35.2795C231.692 35.3337 230.566 35.333 229.351 35.2776C229.221 35.2616 229.091 35.2863 228.94 35.2676C228.08 35.2055 227.282 35.1959 226.641 35.2399C225.89 35.257 225.105 35.2536 224.314 35.2616C223.17 35.2563 222.114 35.2889 221.177 35.3587C220.106 35.2913 219.504 35.4085 218.6 35.4107C217.765 35.4227 216.974 35.4516 216.234 35.497C215.041 35.5573 213.852 35.61 212.676 35.6806C211.573 35.7142 210.557 35.7785 209.646 35.8723C209.296 35.9147 208.664 35.8486 208.426 35.9375C208.188 36.0263 207.709 36.0159 207.321 36.0453L206.097 36.1181C205.886 36.1355 205.655 36.1464 205.406 36.1509C204.268 36.1568 203.48 36.2755 202.424 36.2997L202.317 36.2863C200.441 36.4627 198.296 36.5595 195.942 36.5738C194.567 36.628 193.064 36.6254 191.606 36.665C191.258 36.7443 190.436 36.6466 189.999 36.719C189.563 36.7914 188.85 36.7439 188.288 36.7558C187.725 36.7678 187.175 36.7975 186.574 36.7965C186.052 36.7968 185.611 36.8292 185.291 36.8906C184.562 36.9921 183.673 37.0517 182.663 37.0669C181.328 37.0933 180.066 37.1531 178.708 37.14C178.727 37.2139 178.644 37.2769 178.467 37.3223C178.289 37.3677 178.024 37.394 177.698 37.3984C176.246 37.4266 174.929 37.5001 173.458 37.5219L173.065 37.5221L168.664 37.5646C167.479 37.5728 166.336 37.5863 165.127 37.5956C164.674 37.5395 164.663 37.6361 164.35 37.6177C164.262 37.5701 164.159 37.5492 164.005 37.575L163.971 37.632L158.949 37.7076C156.983 37.7629 154.915 37.7795 152.762 37.7572C152.252 37.7628 151.775 37.7817 151.34 37.8136C150.937 37.8252 150.516 37.8304 150.081 37.829C149.492 37.8146 148.917 37.8074 148.357 37.8073C146.886 37.829 145.342 37.8173 143.731 37.8014C142.12 37.7854 140.9 37.8137 139.466 37.8116C138.495 37.8096 137.528 37.8 136.523 37.7775C136.043 37.767 135.452 37.7101 134.955 37.6894C134.458 37.6686 134.295 37.6689 134.23 37.7016C134.013 37.7931 133.47 37.7339 133.035 37.725C132.188 37.7098 132.067 37.6785 131.837 37.442L132.877 37.3668C133.132 37.3425 133.452 37.3383 133.808 37.3544C134.163 37.3705 134.541 37.4066 134.906 37.459C135.049 37.4814 135.199 37.4992 135.347 37.5112C135.495 37.5232 135.638 37.5292 135.767 37.5289C136.817 37.5161 137.851 37.4892 138.86 37.4672L139.007 37.4529L139.016 37.2419C138.883 37.2212 138.744 37.204 138.606 37.1911L133.549 37.0542C132.388 37.0206 131.183 36.9448 130.044 36.9139C128.904 36.8829 128.291 36.864 127.407 36.832C127.034 36.8138 126.653 36.7899 126.269 36.7604C126.291 36.7401 126.304 36.7185 126.307 36.6958C126.327 36.6616 126.354 36.616 126.191 36.5794C126.012 36.5278 125.774 36.4837 125.523 36.456C125.287 36.4376 125.059 36.4273 124.847 36.4252C123.821 36.4076 122.649 36.2961 121.582 36.1147L121.209 36.2358C119.606 36.1677 117.979 36.1008 116.304 36.0362C115.969 36.0186 115.617 35.9848 115.274 35.9373C114.908 35.8919 114.571 35.7971 114.185 35.7452C113.803 35.7078 113.424 35.6787 113.055 35.6584C113.155 35.6272 113.287 35.6023 113.447 35.5844C113.603 35.5782 113.718 35.5587 113.773 35.5288C113.828 35.499 113.821 35.4603 113.753 35.4184C113.634 35.3465 113.581 35.2788 113.841 35.2702C114.081 35.2538 114.253 35.2183 114.336 35.1679C114.419 35.1175 114.41 35.0543 114.311 34.9857C114.267 34.9456 114.236 34.9063 114.218 34.8682L114.11 34.8548C113.755 34.7129 113.044 34.6616 112.534 34.5454C112.294 34.5117 112.045 34.4923 111.826 34.4903C111.262 34.4654 110.713 34.4545 110.13 34.423C109.851 34.4086 109.56 34.3822 109.273 34.3455C108.863 34.2947 108.82 34.2894 108.582 34.1049C108.952 34.1081 109.245 34.0805 109.412 34.0269C109.578 33.9732 109.609 33.8967 109.498 33.8103C109.193 33.6216 108.871 33.4226 107.492 33.2886C107.942 33.282 108.375 33.2688 108.789 33.2492C108.909 33.245 108.999 33.2312 109.047 33.2095C109.095 33.1879 109.098 33.1595 109.056 33.1281C109.014 33.0967 108.93 33.0639 108.813 33.034C108.696 33.0042 108.554 32.9786 108.404 32.9609C107.676 32.8542 106.917 32.7827 106.211 32.7546C105.617 32.7422 105.08 32.7491 104.386 32.7488L103.566 32.6473C103.58 32.6245 103.459 32.5933 103.49 32.5808C103.698 32.4638 103.928 32.3494 104.165 32.2237C103.787 32.1558 103.459 32.0739 103.22 31.9872C102.981 31.9006 102.839 31.8128 102.811 31.7338C102.791 31.71 102.796 31.6883 102.827 31.6703C102.858 31.6522 102.913 31.6383 102.989 31.6294C103.205 31.6141 103.371 31.5849 103.476 31.5441C103.58 31.5033 103.62 31.4519 103.592 31.394L102.954 31.1804C101.035 31.028 99.151 30.9191 97.3361 30.8558L95.6978 30.8079C95.5001 30.7508 95.5613 30.7257 95.7473 30.7243C95.9334 30.7229 96.4564 30.7387 96.8218 30.7472C97.1372 30.7584 97.4175 30.7511 97.6352 30.7259C97.8529 30.7007 98.0008 30.6585 98.0645 30.6033L97.5144 30.3598C97.5414 30.3142 97.5797 30.2496 97.878 30.2539C98.0819 30.2486 98.2321 30.2257 98.3044 30.1887C98.3767 30.1518 98.3669 30.103 98.2765 30.0503C98.2628 30.0122 98.2834 29.9775 98.3373 29.9477C98.7786 29.9452 99.2176 29.9466 99.6181 29.935C99.8046 29.9311 99.962 29.917 100.08 29.8936C100.197 29.8701 100.273 29.838 100.3 29.7992C100.315 29.7614 100.28 29.7183 100.198 29.6734C100.116 29.6285 99.9892 29.5831 99.8285 29.5408C99.2009 29.4886 98.6269 29.4879 98.2323 29.539C98.0916 29.579 97.8657 29.6009 97.5842 29.6017C97.3027 29.6025 96.9788 29.5823 96.6554 29.5436C96.2851 29.499 95.9156 29.4794 95.6133 29.4883C95.3109 29.4972 95.0957 29.5341 95.0062 29.5922C94.6261 29.5696 94.2891 29.5524 93.9566 29.5275C93.5644 29.4961 93.1936 29.4869 92.8844 29.5008C92.3896 29.5106 91.8566 29.5049 91.2972 29.4837C89.6849 29.4309 88.0704 29.3819 86.5093 29.3599C86.0963 29.3536 85.739 29.3705 85.3306 29.3567C84.9221 29.3428 84.599 29.3803 84.0881 29.3048C83.9909 29.293 83.8929 29.2855 83.8022 29.2827C83.7114 29.28 83.6302 29.2821 83.5651 29.2889C82.6681 29.3486 81.6163 29.3571 80.4716 29.3138C78.9037 29.3031 77.2779 29.2731 75.7078 29.2663C75.2473 29.2722 74.8121 29.2879 74.4068 29.3132C74.0983 29.3286 73.7753 29.339 73.4393 29.3444C73.1818 29.3492 72.9355 29.335 72.9789 29.4179C73.0224 29.5008 72.6365 29.4489 72.4141 29.4336C71.6499 29.3934 70.8689 29.339 70.0798 29.271C69.3023 29.197 68.5404 29.154 67.8399 29.1445C67.3339 29.1389 66.8121 29.16 66.1616 29.0468C66.1864 29.005 66.2111 28.9632 66.3528 28.9195C65.8223 28.7994 65.217 28.696 64.5869 28.618C63.9569 28.54 63.3203 28.4895 62.7297 28.4708L61.9153 28.2434C61.7148 28.2167 61.5101 28.1973 61.3136 28.1863C61.1172 28.1753 60.9331 28.173 60.7726 28.1794C60.6486 28.1827 60.4974 28.1743 60.3469 28.1556C60.1963 28.137 60.0565 28.1094 59.9531 28.0779C59.7984 28.0379 59.6096 28.0034 59.4101 27.9787C59.2106 27.954 59.0094 27.9402 58.8317 27.939C58.2721 27.9143 57.6748 27.8572 57.1009 27.7736C56.952 27.7246 56.8586 27.674 56.8324 27.628C56.8062 27.582 56.8483 27.5426 56.9535 27.5147C57.123 27.4654 57.2182 27.4027 57.2333 27.3302C57.2484 27.2577 57.183 27.1771 57.0413 27.0931C56.9686 27.0416 56.9444 26.9928 56.9699 26.9497C56.9955 26.9066 57.0703 26.87 57.1899 26.8423C57.6363 26.714 57.5169 26.6421 56.7865 26.4292C56.6679 26.3938 56.5249 26.3606 56.3665 26.3319C56.2082 26.3031 56.0381 26.2794 55.8669 26.2623C55.4652 26.2276 55.069 26.2018 54.6856 26.1854C54.4699 26.1587 54.2488 26.1802 54.0003 26.1698C52.7579 26.1179 52.576 26.0342 52.1736 25.8538L51.8804 25.7237C51.3365 25.6183 50.7417 25.5307 50.1388 25.4673C49.5359 25.4039 48.9399 25.3663 48.3938 25.3571C48.1767 25.3565 47.9272 25.3384 47.6834 25.3059C46.89 25.2063 46.0866 25.1374 45.3262 25.1037C44.8524 25.0847 44.3417 25.0357 43.8554 24.9624C43.3691 24.8892 42.9279 24.7948 42.5847 24.6907C42.2765 24.5969 41.8733 24.5128 41.4311 24.4499C40.9135 24.3858 40.8656 24.3105 41.1546 24.2525C41.4437 24.1945 41.9277 24.1198 42.3574 24.0588C42.5069 24.0381 42.5996 24.0043 42.625 23.9614C42.6505 23.9184 42.6078 23.868 42.5016 23.8156C42.4334 23.7259 42.4216 23.6408 42.4664 23.5623C42.4904 23.5297 42.4738 23.4924 42.4179 23.4527C42.362 23.4131 42.268 23.3721 42.1423 23.3326C42.0165 23.293 41.862 23.2558 41.689 23.2235C41.516 23.1912 41.3287 23.1644 41.1396 23.1451C40.3416 23.0463 39.5653 22.9501 38.7515 22.8779C38.4105 22.8438 38.0699 22.8016 37.7379 22.7523C37.0584 22.6304 36.3315 22.5293 35.5993 22.4548C35.2518 22.4216 34.9121 22.3634 34.6537 22.2928C33.8385 22.1029 33.0874 21.9031 32.4139 21.6972C32.2516 21.6334 32.0392 21.5711 31.7901 21.5142C31.5409 21.4574 31.2604 21.4073 30.9661 21.367C30.7289 21.3376 30.5357 21.2729 30.3529 21.2298C30.22 21.1302 30.2058 21.0379 30.3117 20.9619C30.4175 20.8858 30.6399 20.8283 30.9579 20.7948C31.2595 20.7547 31.5418 20.708 31.8025 20.6587C32.1168 20.6189 32.4904 20.5949 32.9094 20.5878C33.4058 20.5664 33.7728 20.5052 33.9626 20.4122C32.6039 20.244 31.3119 20.0024 30.121 20.0588L29.2161 19.906C29.2521 19.8452 29.2837 19.792 29.3129 19.7425C29.5281 19.6526 29.5954 19.5392 29.5089 19.4119C29.4376 19.3503 29.4441 19.2943 29.5275 19.2495C29.611 19.2046 29.7686 19.1726 29.9843 19.1567C31.2621 18.9926 32.7398 18.8819 33.9381 18.6958C34.3138 18.6609 34.7536 18.645 35.2391 18.6489C35.7087 18.6377 35.6891 18.5537 35.1486 18.45C34.8453 18.3959 34.5361 18.344 34.2222 18.2945C32.8382 18.2863 32.2743 18.5346 30.6949 18.4655L29.9628 18.1382C29.7649 18.1331 29.5727 18.1311 29.3876 18.1322L26.7393 18.2652C26.5187 18.2719 26.347 18.2946 26.2437 18.3309C26.1404 18.3671 26.1096 18.4154 26.1548 18.4702C26.1727 18.5373 26.1362 18.5989 26.0467 18.6526C25.9889 18.6903 26.0259 18.7403 26.1494 18.7918C26.4279 18.9079 26.0706 18.9249 25.845 18.954C25.7873 18.9569 25.7208 18.9566 25.6493 18.9531C25.5778 18.9497 25.5028 18.9432 25.4286 18.934C25.3543 18.9248 25.2824 18.9131 25.2169 18.8996C25.1514 18.8861 25.0937 18.871 25.047 18.8552C24.6495 18.7448 24.3018 18.6283 23.911 18.5065C24.1885 18.3899 23.862 18.1985 24.2949 18.093C24.3434 18.0719 24.3627 18.0463 24.3519 18.0176C24.341 17.9889 24.3002 17.9577 24.2318 17.9261C24.0555 17.8444 23.9716 17.7648 23.9884 17.6953C24.0052 17.6257 24.1222 17.5687 24.3277 17.53L24.3524 17.4882C23.8107 17.3477 23.9542 17.2227 23.7414 17.0739L23.2203 16.9768C21.9238 16.7427 21.9215 16.7465 20.8052 16.7551C20.5802 16.6661 20.8661 16.6525 21.0805 16.6424L22.8759 16.5425C24.0497 16.4757 25.2577 16.4295 26.569 16.4043C27.8803 16.379 29.3423 16.2949 30.6977 16.2343C30.7662 16.2296 30.8186 16.2203 30.8505 16.2073C30.8824 16.1942 30.8929 16.1777 30.8811 16.1591C30.8272 16.1391 30.7567 16.1197 30.6748 16.1025C30.5928 16.0853 30.5015 16.0707 30.4076 16.0597C29.9763 16.0063 29.5337 15.9719 29.0741 15.9272L28.2172 15.8496L27.9536 15.7476C27.782 15.6855 27.6648 15.6098 27.4366 15.5653C27.2485 15.532 27.0444 15.5068 26.8454 15.4922C26.6464 15.4776 26.4598 15.4741 26.3052 15.4822C25.8765 15.5026 25.4886 15.532 25.0792 15.5588C24.6698 15.5857 24.4442 15.6148 24.0891 15.628C23.3678 15.6339 22.6707 15.6497 22.0008 15.6753C21.4366 15.7357 20.9147 15.8074 20.4385 15.8897C20.1414 15.9223 19.8636 15.9613 19.3563 15.9189C19.1157 15.8804 18.9081 15.8299 18.7704 15.7762C18.6327 15.7226 18.5738 15.6693 18.6041 15.6258C18.6313 15.5918 18.7083 15.5648 18.828 15.5475C18.9476 15.5302 19.1058 15.5231 19.2877 15.5269C19.7969 15.5206 20.2678 15.4996 20.6908 15.4641C21.2796 15.3998 21.9964 15.3721 22.7993 15.3826C23.0716 15.3918 23.2542 15.3573 23.4923 15.346C23.7305 15.3347 23.9323 15.3067 24.1979 15.3273C25.0228 15.3805 25.4184 15.299 25.9128 15.246C26.0802 15.2225 26.1838 15.1845 26.2125 15.1362C26.2411 15.0879 26.1935 15.0312 26.075 14.9723C25.8468 14.855 25.5677 14.7371 25.2419 14.6203C25.0743 14.5629 24.8595 14.5084 24.6145 14.4611C24.3694 14.4137 24.1007 14.3748 23.8295 14.3475C23.6671 14.2756 23.5805 14.205 23.5775 14.1419C23.5744 14.0789 23.6551 14.0254 23.8121 13.9863C24.2121 13.8972 24.5668 13.8065 25.4632 13.8563C25.8847 13.8753 26.2813 13.879 26.6374 13.8671C27.4272 13.8508 28.3382 13.8864 29.2845 13.9706C29.5294 13.9921 29.7701 14.0068 29.9994 14.0142C31.6355 14.0659 33.1944 14.0917 34.7577 14.1099C35.5859 14.1187 36.4208 14.116 37.2854 14.1415C39.3129 14.1968 41.1585 14.1684 43.1155 14.1864C44.1405 14.1957 45.0579 14.1584 45.8196 14.0766C45.9679 14.0492 46.0953 14.0172 46.2003 13.981C45.6955 13.886 45.1411 13.8108 44.59 13.7625C44.039 13.7143 43.5099 13.6946 43.0533 13.7055C42.8024 13.7321 42.4779 13.7369 42.1163 13.7195C41.7547 13.7021 41.37 13.6631 41.0052 13.6068L42.0658 13.575C42.7691 13.5601 43.4894 13.5555 44.1734 13.5342C45.2601 13.4974 46.2672 13.4385 47.3924 13.4147C48.3009 13.3928 49.1139 13.3369 49.8058 13.2486C50.3057 13.1842 50.8766 13.1385 51.5069 13.1125C51.955 13.0986 51.955 13.0986 52.2414 12.9669C52.0142 12.8816 51.7203 12.8697 51.4435 12.868C49.7839 12.8144 48.2046 12.805 46.7377 12.84C45.9975 12.8431 45.3409 12.8793 44.7993 12.9467C44.6667 12.9752 44.3275 12.9617 44.0552 12.9524C43.2015 12.9384 42.3856 12.9425 41.6173 12.9646C40.555 13.0016 39.3719 12.9928 38.114 12.9387C37.8755 12.8724 38.15 12.8779 38.1635 12.8551C39.1378 12.8126 40.0929 12.7636 41.0865 12.7276C41.3581 12.7147 41.6484 12.7084 41.9542 12.7086C43.0959 12.7309 44.0472 12.669 44.675 12.5315C44.7066 12.4783 45.1195 12.4846 45.302 12.4501C45.3918 12.4202 45.4516 12.385 45.4796 12.3456C45.2138 12.2474 44.9131 12.2469 44.6817 12.2468C44.0102 12.2577 43.3641 12.2785 42.7467 12.309C42.1727 12.338 41.5373 12.3458 40.8578 12.3321C40.3564 12.3189 39.9276 12.3393 39.4217 12.3337C39.1472 12.322 38.8631 12.3033 38.5751 12.2778C38.8958 12.2094 39.3316 12.1673 39.852 12.1545C40.2466 12.1136 40.74 12.1013 40.8031 11.9949C40.6167 11.9187 40.4091 11.9175 40.2424 11.9254C39.8953 11.9251 39.5601 11.9299 39.2385 11.9398C38.5564 11.9614 37.818 11.9617 37.0387 11.9407C36.6284 11.9328 36.239 11.9352 35.8771 11.9477C35.057 11.9645 34.2709 12.0017 33.52 12.0189C31.9818 12.0364 30.5788 12.0993 29.1008 12.1324C28.7718 12.1406 28.4769 12.1694 28.0433 12.1198C27.6098 12.0702 27.5905 12.0637 27.5393 12.0329C27.418 11.9815 27.3812 11.9316 27.4366 11.8937C27.5226 11.8583 27.6902 11.8385 27.9094 11.838C29.2307 11.7816 30.4839 11.7025 31.6612 11.601C32.1793 11.5807 32.6332 11.5392 33.0072 11.4781C33.3038 11.4359 33.6556 11.4081 34.0517 11.3953C34.6276 11.3648 35.2281 11.3425 35.8506 11.3284C36.1403 11.3209 36.3865 11.2983 36.575 11.2621C36.7634 11.2259 36.8902 11.1767 36.9478 11.1176L36.1847 10.9211C36.0648 10.9119 35.9458 10.904 35.8283 10.8973L29.4942 11.0389L28.8669 11.0428C28.1793 11.0311 28.0113 11.0021 27.3591 10.7745C28.8475 10.7209 30.0175 10.5648 30.7526 10.3217C30.5759 10.2956 30.3948 10.2731 30.2134 10.2549C29.024 10.1975 27.8996 10.1822 26.8836 10.2097C26.2801 10.2125 25.6596 10.205 25.0367 10.2013C25.2189 10.0892 25.9167 10.1226 26.3715 10.0973C27.4582 10.0578 28.4191 9.97612 29.2236 9.85495C29.501 9.8077 29.848 9.77749 30.2487 9.7657C30.6498 9.76164 30.9848 9.73304 31.2246 9.6824C31.4644 9.63175 31.6018 9.5606 31.6247 9.47512C31.6624 9.39773 31.7439 9.32582 31.8677 9.26045C31.6486 9.1677 31.3008 9.07888 30.8894 9.01066C30.4781 8.94244 30.0315 8.8995 29.6335 8.88991C28.7838 8.85172 27.9026 8.7892 27.0121 8.70395C26.5686 8.66095 26.1336 8.63627 25.7355 8.63151C25.3845 8.62785 24.9855 8.5968 24.5993 8.54308C24.2132 8.48937 23.8612 8.41594 23.5969 8.33401C23.2403 8.23272 22.9074 8.1303 22.5746 8.02788C22.2417 7.92547 21.8555 7.79604 21.467 7.67041C21.1244 7.65076 20.7908 7.63813 20.4708 7.6327C20.2218 7.6373 19.9312 7.6236 19.6334 7.59322C19.3355 7.56284 19.0428 7.51704 18.7899 7.46123C18.9382 7.40617 19.106 7.35759 19.2827 7.29381C19.0401 7.20958 18.8643 7.12368 18.7658 7.04135C18.6673 6.95902 18.6483 6.88198 18.71 6.81492C18.746 6.75411 18.4823 6.65211 18.3912 6.57147C18.274 6.50196 18.2519 6.43709 18.328 6.38536C18.4041 6.33363 18.5748 6.29747 18.8177 6.28161C19.119 6.25234 19.3641 6.20825 19.5432 6.15117C19.6024 6.13635 19.6326 6.11606 19.6309 6.09214C19.6292 6.06823 19.5957 6.04146 19.5335 6.01428C19.4713 5.9871 19.3824 5.96037 19.2749 5.93655C19.1674 5.91273 19.0447 5.89258 18.9181 5.87793C18.5301 5.83639 18.1449 5.80947 17.7844 5.79871C17.1634 5.77891 16.5689 5.76648 16.0009 5.7614C15.3727 5.75376 14.6738 5.70662 13.9753 5.62475C13.3499 5.54729 12.7891 5.47784 12.4833 5.32982C12.1775 5.1818 11.6886 5.18652 11.3126 5.07876C11.5238 4.98162 11.8992 4.91413 12.4009 4.8831C12.7291 4.87202 13.0032 4.84294 13.2054 4.79773C13.4076 4.75252 13.5335 4.69218 13.575 4.62057L12.4336 4.32009C11.522 4.17864 11.0177 4.28751 10.0327 4.2308L11.0476 4.11988C11.068 4.10891 11.0756 4.09604 11.0701 4.08187C10.9716 3.85753 10.8148 3.80956 9.77736 3.68515L9.1951 3.61304L8.27353 3.52745C8.12593 3.48148 8.02386 3.43353 7.97748 3.38841C7.9311 3.34329 7.94204 3.30258 8.00923 3.27035C8.14425 3.21614 8.1853 3.14687 8.12861 3.06891C8.03923 3.01728 8.03186 2.96967 8.10776 2.93436C8.18366 2.89905 8.33804 2.87826 8.54413 2.87561C8.70861 2.8715 8.72082 2.81182 8.81029 2.77803C8.8992 2.73145 9.05137 2.69571 9.25642 2.67324C9.46148 2.65077 9.71458 2.64208 9.99859 2.64779C10.8359 2.65245 11.6225 2.63497 12.3444 2.59565L12.215 2.57962C12.9674 2.61414 13.6709 2.61833 14.2911 2.59198C14.9126 2.55881 15.7103 2.58009 16.3704 2.55986C16.9079 2.5645 17.317 2.5186 17.5111 2.43189C17.6991 2.3491 18.3821 2.36843 18.9051 2.38425C19.215 2.39449 19.5144 2.39883 19.8003 2.39721C20.184 2.37848 20.6638 2.39614 21.1596 2.44726C21.3084 2.46297 21.4549 2.47129 21.5851 2.47141C22.8456 2.49289 24.1038 2.51818 25.3472 2.52939C25.6342 2.52293 25.9707 2.53772 26.3173 2.57203C26.463 2.58693 26.6047 2.5931 26.7236 2.58971C28.6883 2.55564 30.9053 2.64257 32.8314 2.59556C33.0649 2.58445 33.3233 2.58215 33.5994 2.58869C34.2199 2.61631 34.7587 2.59854 35.1341 2.53807C35.3366 2.50591 35.5963 2.48819 35.8965 2.48604C36.1967 2.48388 36.5309 2.49735 36.8777 2.52557C37.4549 2.56294 37.9883 2.56699 38.4217 2.5373C39.2667 2.50987 40.1554 2.49859 41.0807 2.50355C41.3643 2.50835 41.6135 2.49769 41.8091 2.4724C42.0048 2.44711 42.1415 2.40786 42.2088 2.3577C41.9816 2.27244 41.7331 2.26206 41.4972 2.26956C40.5827 2.25013 39.6705 2.2269 38.7732 2.21775C37.9699 2.1916 37.1992 2.1836 36.4724 2.19388C36.1115 2.20548 35.6611 2.17903 35.2196 2.12032C34.6785 2.04595 34.1212 2.00901 33.6604 2.01695C33.3188 2.01892 32.9582 2.01252 32.5838 1.99783C32.3441 1.98011 32.0985 1.94969 31.8721 1.90969C31.7823 1.89232 31.6845 1.87771 31.585 1.8668C31.4855 1.85589 31.3866 1.84893 31.2945 1.84635C31.2023 1.84376 31.119 1.84562 31.0498 1.8518C30.9807 1.85798 30.9273 1.86836 30.893 1.88225C30.5463 1.99842 29.7712 1.93914 29.1075 1.92629C28.1129 1.72967 27.3726 1.84604 26.443 1.73499C26.3695 1.72763 26.2971 1.72317 26.2302 1.72189C26.1633 1.72062 26.1033 1.72256 26.0539 1.72758C24.2549 1.79443 22.1582 1.73872 20.2695 1.7618C20.0612 1.76518 19.8194 1.75361 19.5717 1.72841C17.9525 1.56163 16.3957 1.51428 15.2057 1.59563C15.0609 1.60295 14.8962 1.60326 14.719 1.59655C13.9054 1.53026 13.1274 1.50384 12.4498 1.51947C11.388 1.51442 10.367 1.51852 9.28805 1.5032C8.54431 1.48139 7.89186 1.50469 7.39605 1.57075C7.38028 1.59735 7.05001 1.56869 6.79701 1.56591C6.65151 1.49893 6.52537 1.43844 6.37537 1.37906C6.24127 1.30561 6.0404 1.23128 5.78643 1.16111C5.53246 1.09094 5.23135 1.02658 4.90338 0.972379C4.34266 0.902932 4.28658 0.802157 4.67894 0.765082C5.69025 0.642418 6.96191 0.592213 8.40044 0.618152C9.60297 0.620224 10.8271 0.624974 12.0467 0.637319C12.758 0.64791 13.5079 0.671435 14.2 0.675554C14.4335 0.684606 14.6734 0.697943 14.9171 0.715425C15.2162 0.74077 15.5066 0.754581 15.7727 0.756114C16.627 0.734768 17.5804 0.753365 18.5875 0.811012C18.9564 0.823584 19.3106 0.827819 19.6449 0.82366C20.4356 0.808011 21.293 0.819527 22.1941 0.857903C22.7542 0.879543 23.2972 0.890858 23.8177 0.891727C24.0015 0.894093 24.1511 0.875915 24.3282 0.889681C25.8864 1.03372 26.9898 0.929679 28.3922 0.985066C29.0738 1.00051 29.725 1.00055 30.3366 0.985199C31.5302 0.98594 32.7572 1.00173 34.0124 1.03251C35.6724 1.08307 37.2106 1.06553 38.7955 1.0864C39.1084 1.09079 39.4105 1.09004 39.6997 1.08416C41.1062 1.04531 42.6339 1.05355 44.2455 1.10868C44.6114 1.11665 44.9401 1.1069 45.2109 1.08008C45.4818 1.05325 45.6889 1.00991 45.8194 0.952771C45.8746 0.913557 45.8388 0.86262 45.719 0.80979C45.5201 0.74232 45.2954 0.676214 45.0488 0.61256L36.0777 0.398966C35.701 0.387813 35.3335 0.381808 34.9773 0.380979C33.9296 0.379121 32.8496 0.362503 31.7428 0.33121C30.649 0.301817 29.6042 0.307034 28.5446 0.298185C28.2325 0.29522 27.9121 0.288225 27.5848 0.277221C25.3723 0.190121 23.215 0.136921 21.1279 0.118004C20.2498 0.115321 19.3013 0.0753466 18.4061 0.0623907C17.511 0.0494347 16.2869 0.0446898 15.225 0.0396395L11.9374 0.0404149C11.2908 0.0378376 10.6612 0.0455297 10.0338 0.0494237C9.27256 -0.228443 9.01022 -0.293572 7.99437 -0.41531C7.64683 -0.460215 7.29333 -0.487015 6.97531 -0.492566C5.96689 -0.470601 4.70157 -0.562039 3.74528 -0.549933C3.16825 -0.555906 2.6786 -0.525037 2.32649 -0.460488C2.02082 -0.40983 1.67129 -0.369745 1.28328 -0.34084C0.220409 -0.578549 0.126738 -0.732933 0.926264 -0.793011C1.14288 -0.806978 1.44126 -0.802658 1.59768 -0.832237C1.68744 -0.850252 1.81005 -0.860555 1.95575 -0.862337C2.10145 -0.864118 2.2662 -0.857329 2.4371 -0.8425C2.97645 -0.803601 3.48197 -0.794452 3.90295 -0.815974C4.29914 -0.844457 4.78478 -0.843321 5.31305 -0.812669C5.70124 -0.76459 6.04244 -0.832478 6.37816 -0.852093C6.71387 -0.871706 6.98937 -0.90694 7.51371 -0.854236C7.60973 -0.843743 7.70505 -0.837442 7.79237 -0.835821C7.87969 -0.8342 7.95669 -0.837297 8.01745 -0.84488C8.58061 -0.878822 9.25264 -0.875257 9.97897 -0.834473C11.0929 -0.79434 12.1382 -0.792836 13.0783 -0.83001C13.6411 -0.862537 14.1209 -0.920218 14.499 -1.00081C14.6021 -1.02776 14.7551 -1.04392 14.9435 -1.04774C15.8894 -1.03093 16.9165 -0.967646 17.9586 -0.86198C18.3511 -0.81964 18.7432 -0.78615 19.1263 -0.762223C19.9139 -0.709067 20.6755 -0.679282 21.3888 -0.673747C22.4253 -0.672869 23.5044 -0.652418 24.6166 -0.612578C25.303 -0.590395 25.9644 -0.582207 26.5929 -0.588104C27.2389 -0.590884 27.9287 -0.573963 28.6465 -0.537734C29.3604 -0.508211 29.9895 -0.525221 30.458 -0.586705C30.6122 -0.619838 30.7365 -0.659182 30.8284 -0.704004C29.7832 -0.84985 28.7022 -0.923972 27.8031 -0.911444C27.4616 -0.921104 27.178 -0.911351 26.8181 -0.96816L26.8069 -0.949158C26.7352 -0.936827 26.6272 -0.933917 26.5033 -0.940986C26.3794 -0.948053 26.2484 -0.964601 26.1351 -0.987478C26.1779 -1.05969 26.2185 -1.1281 26.2477 -1.17751C26.9328 -1.16879 27.598 -1.1695 28.2399 -1.17963C28.7809 -1.19421 29.5154 -1.06652 29.9838 -1.11458C30.8973 -1.05448 31.4789 -1.13747 32.298 -1.11352C33.1172 -1.08957 34.0195 -1.01047 34.8386 -0.986519C35.5534 -0.973378 36.2475 -0.970522 36.917 -0.977963C37.148 -0.988408 37.4144 -0.985958 37.6998 -0.970762C38.1009 -0.942172 38.474 -0.937381 38.7763 -0.956941C39.0785 -0.976502 39.2978 -1.01963 39.4089 -1.08137C39.3042 -1.1392 39.1633 -1.21377 39.0007 -1.29102C39.2998 -1.35449 39.754 -1.38121 40.2959 -1.36722L41.0617 -1.37028C41.2646 -1.36861 41.4197 -1.38577 41.4949 -1.41821C41.5702 -1.45066 41.5598 -1.4959 41.4659 -1.54459C40.0139 -1.7897 39.9604 -1.81672 38.8947 -1.65906L37.4798 -1.73232L37.5036 -1.73345ZM56.6424 -1.06014L56.5346 -1.07349L56.6424 -1.06014ZM232.977 25.018L232.952 25.0599L232.979 25.0142L233.217 25.0436L233.232 25.017L232.977 25.018ZM198.534 6.69413C198.199 6.64853 197.86 6.60659 197.521 6.5686C197.432 6.56271 197.348 6.56137 197.278 6.56472C197.207 6.56806 197.152 6.57598 197.116 6.58779C197.089 6.6334 197.278 6.66505 197.451 6.68641C197.668 6.71517 197.891 6.73345 198.095 6.73936C198.299 6.74526 198.477 6.73859 198.611 6.72002L198.806 6.70338L198.534 6.69413ZM25.8286 17.8097C26.0494 17.8174 26.2587 17.8187 26.4515 17.8134C27.3067 17.7766 28.1255 17.723 29.0023 17.6888C30.1085 17.602 31.3798 17.5666 32.7682 17.5841C33.3106 17.5926 33.7689 17.5644 34.0895 17.5029C34.2815 17.4699 34.5292 17.4507 34.8176 17.4463L38.4882 17.3461C38.7151 17.3253 38.9113 17.2961 39.0721 17.2593C38.7486 17.2192 38.5329 17.1925 38.4035 17.1765C38.1351 17.172 37.9043 17.1842 37.7344 17.2119C37.5518 17.2589 37.2433 17.2775 36.8701 17.264C36.4933 17.2528 36.1259 17.2468 35.7697 17.246C35.0969 17.2483 34.4197 17.2583 33.7447 17.2644C33.4821 17.3951 32.707 17.3358 32.0433 17.3229L31.5305 17.3288C29.8545 17.3965 28.2535 17.4897 26.7353 17.6079C26.4419 17.6279 26.1891 17.6598 25.9847 17.7026C25.9077 17.736 25.8831 17.7776 25.9126 17.8242L25.8048 17.8109L25.8286 17.8097ZM100.674 30.3023C101.08 30.3112 101.504 30.3295 101.938 30.3569C102.272 30.3848 102.598 30.4018 102.903 30.4071C104.613 30.4364 106.394 30.5041 108.223 30.6092C108.463 30.6251 108.693 30.6329 108.904 30.6323L110.402 30.6056C110.873 30.5906 110.882 30.5754 110.539 30.3738C110.254 30.3346 109.966 30.2989 109.676 30.2669C109.504 30.2455 109.224 30.2108 109.158 30.2435C108.758 30.3326 108.028 30.2749 107.414 30.256C105.638 30.2073 103.805 30.1353 102.011 30.0764C101.632 30.0619 101.265 30.0546 100.913 30.0546C100.695 30.0515 100.496 30.0572 100.324 30.0714C100.274 30.0728 100.232 30.0771 100.201 30.0838C100.17 30.0905 100.151 30.0995 100.144 30.1103C100.138 30.1211 100.145 30.1334 100.164 30.1463C100.183 30.1593 100.215 30.1726 100.257 30.1854C100.403 30.2303 100.573 30.2733 100.76 30.313L100.674 30.3023ZM113.689 1.03641L115.44 1.0125C115.649 1.00994 115.827 0.983029 116.052 0.994536C117.251 1.03101 118.36 1.02085 119.334 0.964492C119.666 0.941494 120.053 0.936895 120.476 0.950949C121.771 0.992596 122.993 0.99431 124.108 0.956041C124.828 0.94836 125.503 0.922564 126.121 0.879035C126.169 0.86893 126.198 0.855212 126.208 0.838815C126.218 0.822418 126.207 0.803728 126.177 0.784021C126.17 0.771571 126.148 0.758176 126.115 0.744763C126.082 0.731351 126.038 0.718232 125.986 0.706321C125.933 0.694409 125.874 0.683987 125.812 0.675763C125.75 0.66754 125.687 0.661712 125.627 0.658689C124.846 0.599768 124.104 0.579242 123.463 0.598776C122.868 0.622148 122.228 0.628988 121.553 0.619186C120.906 0.616608 120.467 0.692818 119.668 0.634667C119.33 0.615518 119.032 0.621822 118.824 0.652523C118.406 0.703411 117.822 0.706242 117.176 0.660511C116.79 0.637367 116.42 0.627442 116.082 0.631115C115.262 0.647845 114.478 0.681319 113.718 0.713663C113.479 0.721145 113.222 0.722178 112.953 0.716737L109.148 0.653402C108.233 0.633974 107.321 0.610746 106.423 0.60159C105.69 0.581709 105.007 0.587935 104.399 0.620049C103.75 0.653803 103.043 0.667505 102.291 0.6609C101.123 0.679371 99.9609 0.686436 98.6892 0.683951C97.878 0.68548 97.0476 0.680539 96.2001 0.665324C95.7714 0.645741 95.4074 0.661688 95.1782 0.710096C95.0388 0.749948 94.7108 0.717481 94.4385 0.708233C92.9861 0.61909 91.6239 0.597968 90.4473 0.646338C90.297 0.65422 90.1321 0.657073 89.9561 0.654849C88.8227 0.653188 87.6485 0.642384 86.5606 0.642264C86.2742 0.646022 86.0046 0.656335 85.7553 0.67307C85.782 0.700372 85.8581 0.729965 85.9678 0.75571C86.0776 0.781454 86.2125 0.801377 86.3447 0.811341C87.3736 0.887619 88.3671 0.927914 89.2834 0.930536C90.8086 0.920818 92.4063 0.942665 94.0597 0.99584C95.3427 1.04945 96.5126 1.03816 97.4822 0.962819C98.2402 0.906599 99.2262 0.927752 100.271 1.02264C100.718 1.06796 101.152 1.08608 101.513 1.07453C101.861 1.05938 102.26 1.06305 102.688 1.08534C103.588 1.12772 104.454 1.14738 105.269 1.14393C106.065 1.12833 106.808 1.08571 107.626 1.07278C108.444 1.05985 109.689 1.06726 110.698 1.04529C111.706 1.02333 112.703 1.02037 113.689 1.03641ZM41.1612 -1.18662C41.2536 -1.06911 41.5806 -0.995966 41.9324 -0.964632C43.1454 -0.825496 44.3445 -0.76629 45.3285 -0.796948C45.8601 -0.839711 46.5687 -0.82325 47.3151 -0.750798C48.1843 -0.675483 48.9967 -0.662993 49.6091 -0.715529C49.7592 -0.724708 49.8741 -0.744114 49.9436 -0.772019C49.9571 -0.794821 49.9819 -0.836626 49.9864 -0.844227C49.922 -0.863505 49.8431 -0.881366 49.7557 -0.896434C49.6683 -0.911503 49.5748 -0.923374 49.4823 -0.931133L45.4647 -1.06565L44.7645 -1.09525C43.4858 -1.17281 42.2672 -1.2037 41.1612 -1.18662ZM49.0639 0.673329C49.6909 0.865218 49.6931 0.861409 50.0144 0.905275C51.5641 1.08748 53.1128 1.18584 54.4762 1.18864C54.7792 1.18809 55.0364 1.16956 55.2259 1.13463C55.3234 1.1299 55.3855 1.11485 55.3986 1.09278C55.4117 1.07071 55.3747 1.0434 55.2958 1.01681L54.7971 0.881629C53.8916 0.823104 52.9991 0.776601 52.1249 0.742403C51.1071 0.702018 50.2052 0.700459 49.1501 0.684008L49.0639 0.673329ZM100.598 29.4526C101.183 29.7167 101.185 29.7129 102.163 29.781C102.845 29.8293 103.506 29.8576 104.127 29.8652C104.886 29.8735 105.664 29.8883 106.421 29.9005C106.606 29.9089 106.763 29.9019 106.861 29.8809C106.959 29.8598 106.991 29.8263 106.952 29.7867C106.852 29.7437 106.697 29.7021 106.511 29.6687C106.325 29.6353 106.119 29.612 105.926 29.6026L105.513 29.5963C105.012 29.5831 104.491 29.5635 104.007 29.5606C103.692 29.5716 103.328 29.5631 102.943 29.5359C102.557 29.5087 102.161 29.4634 101.785 29.4037L100.598 29.4526ZM52.1838 -0.841315C52.3398 -0.795578 52.5163 -0.751772 52.7085 -0.711064C53.4526 -0.598233 54.2402 -0.534148 54.9169 -0.531375C55.2368 -0.524385 55.5294 -0.549341 55.8552 -0.513076C56.4394 -0.464616 57.0056 -0.438802 57.5232 -0.437033C57.5232 -0.437033 57.6683 -0.447614 57.7159 -0.449873L57.8151 -0.617097C57.57 -0.655837 57.3145 -0.687485 57.0602 -0.710584C56.2069 -0.755075 55.3684 -0.785492 54.5322 -0.819709C53.696 -0.853928 53.4044 -0.869647 52.8575 -0.884343C52.6136 -0.876265 52.3879 -0.861851 52.1838 -0.841315ZM33.7053 19.948L34.822 20.2902C35.1833 20.32 35.5209 20.3254 35.7833 20.3056C36.0458 20.2858 36.2187 20.2419 36.2758 20.1806C36.3678 20.152 36.377 20.1095 36.3015 20.0621C36.226 20.0147 36.0716 19.9661 35.8709 19.9265C35.6776 19.8795 35.457 19.8374 35.2227 19.8028C34.9883 19.7682 34.7453 19.7417 34.5087 19.7252L33.7053 19.948ZM43.0026 18.2438C42.2723 18.1857 41.5737 18.162 40.9603 18.1744C40.5739 18.2084 40.0503 18.1975 39.4968 18.1441C38.4903 18.0376 37.52 18.0081 36.7908 18.0619C36.7908 18.0619 36.7637 18.1075 36.6401 18.1207C36.5165 18.134 37.0067 18.1661 37.1146 18.1795C37.9054 18.2122 38.7008 18.2372 39.3883 18.249C39.8152 18.2485 40.2667 18.2592 40.735 18.2811C41.3795 18.3149 41.9906 18.3258 42.5446 18.3135C42.5446 18.3135 42.759 18.3034 43.0004 18.2476L43.0026 18.2438ZM121.001 0.416305C120.653 0.351845 120.274 0.299454 119.895 0.263069C119.516 0.226683 119.145 0.207246 118.811 0.206212C118.555 0.202849 118.348 0.219868 118.223 0.254579C118.098 0.28929 118.061 0.339714 118.119 0.397874C118.378 0.429927 118.723 0.472662 118.917 0.496701C119.589 0.494348 120.163 0.46344 121.001 0.416305ZM186.303 5.84836C186.024 5.79647 185.715 5.7568 185.414 5.73387C185.112 5.71095 184.829 5.70569 184.598 5.71871C184.479 5.72436 184.56 5.78332 184.539 5.81753C184.526 5.82528 184.526 5.83493 184.54 5.84545C184.553 5.85598 184.58 5.867 184.616 5.87735C184.653 5.88771 184.698 5.89702 184.747 5.90432C184.796 5.91161 184.848 5.91662 184.896 5.91881C185.2 5.94116 185.486 5.94782 185.73 5.93818C185.974 5.92854 186.168 5.90291 186.294 5.86357L186.303 5.84836ZM190.679 6.59016C190.635 6.55954 190.543 6.52763 190.419 6.50027C190.295 6.47291 190.147 6.45194 190.003 6.44121C189.748 6.43977 189.516 6.44826 189.317 6.46637C189.1 6.48033 189.256 6.56898 189.549 6.62158C189.673 6.64269 189.806 6.65916 189.936 6.66967C190.067 6.68019 190.191 6.68446 190.301 6.68215C190.41 6.67984 190.501 6.671 190.565 6.65635C190.63 6.6417 190.668 6.62164 190.674 6.59776L190.679 6.59016ZM63.5422 -0.515626C62.8894 -0.625031 62.387 -0.597508 61.8343 -0.64148C61.2816 -0.685452 61.1455 -0.690079 61.2195 -0.619715C61.2936 -0.549352 61.6724 -0.563622 61.9097 -0.534241C62.2302 -0.495254 62.5526 -0.472867 62.8409 -0.46958C63.1293 -0.466291 63.3721 -0.482234 63.5422 -0.515626ZM199.568 17.996C199.222 17.9714 198.883 17.9541 198.557 17.9442C198.514 17.9544 198.487 17.9677 198.478 17.9834C198.468 17.999 198.477 18.0167 198.503 18.0354C198.503 18.0354 198.724 18.0914 198.854 18.1074C199.33 18.1624 199.354 18.0837 199.568 17.996ZM248.436 28.1892C248.67 28.2631 248.78 28.3133 248.967 28.3487C249.053 28.361 249.142 28.37 249.227 28.3749C249.312 28.3798 249.392 28.3806 249.459 28.3771C249.542 28.3558 249.561 28.3233 249.513 28.2859C249.513 28.2859 249.275 28.2196 249.184 28.2166C248.925 28.2009 248.674 28.1917 248.436 28.1892ZM52.431 -1.14115C51.935 -1.20258 51.4605 -1.26135 51.117 -1.18966C51.9047 -1.1125 51.9047 -1.1125 52.431 -1.14115ZM60.4648 -0.439867C59.9639 -0.571252 59.67 -0.583175 59.4296 -0.568079C59.3785 -0.564277 59.3447 -0.555802 59.3332 -0.543942C59.3218 -0.532082 59.3334 -0.517481 59.3663 -0.502345C59.3992 -0.48721 59.4515 -0.472367 59.5155 -0.460058C59.5794 -0.447749 59.6514 -0.438646 59.7206 -0.434127C59.9818 -0.430345 60.2309 -0.432266 60.4648 -0.439867ZM86.243 -0.384309C86.2543 -0.403312 86.2678 -0.426116 86.1384 -0.442141C86.1045 -0.450276 86.0648 -0.457273 86.0232 -0.462431C85.9815 -0.467589 85.9395 -0.470721 85.9012 -0.471519C85.9012 -0.471519 85.8877 -0.448715 85.8787 -0.433512L86.243 -0.384309ZM104.144 31.1646L103.856 31.1819L103.985 31.198L104.327 31.2076L104.144 31.1646ZM205.577 6.29364C205.47 6.28029 205.362 6.26693 205.346 6.29353C205.323 6.29766 205.309 6.3036 205.305 6.31087C205.3 6.31815 205.306 6.32653 205.321 6.33534C205.321 6.33534 205.472 6.35404 205.537 6.36205L205.577 6.29364ZM188.784 6.50642C188.713 6.50489 188.649 6.50667 188.596 6.51166L188.582 6.53446L188.798 6.56117L188.784 6.50642ZM42.4331 11.9397C42.3498 11.9259 42.2615 11.9149 42.1743 11.9077L42.0664 11.8943C42.0664 11.8943 42.1823 11.9331 42.247 11.9412C42.3117 11.9492 42.3639 11.9393 42.4331 11.9397Z" fill="#F65F5F"/>
</svg>
