<svg width="21" height="15" viewBox="0 0 21 15" fill="none" xmlns="http://www.w3.org/2000/svg">
<path d="M18.285 3.78152C18.298 3.94229 18.298 4.10307 18.298 4.26385C18.3092 5.65288 18.0094 7.03003 17.4161 8.31525C16.8229 9.60047 15.9479 10.7681 14.8422 11.7503C13.7364 12.7326 12.4219 13.5097 10.975 14.0367C9.52812 14.5637 7.97775 14.83 6.414 14.8201C4.14 14.8255 1.91267 14.2471 0 13.1546C0.335031 13.1874 0.67194 13.2028 1.009 13.2007C2.88915 13.2049 4.71606 12.6464 6.195 11.6152C5.32305 11.6009 4.47794 11.3449 3.7778 10.883C3.07765 10.4212 2.55748 9.77651 2.29 9.03919C2.551 9.07599 2.81474 9.0953 3.079 9.09693C3.45018 9.09611 3.81976 9.05373 4.179 8.9708C3.23306 8.80086 2.38256 8.34522 1.77203 7.68129C1.16151 7.01737 0.82864 6.18614 0.83 5.32889V5.28536C1.4088 5.5722 2.0557 5.73351 2.718 5.75614C1.83156 5.23094 1.20417 4.42505 0.963878 3.50294C0.723589 2.58083 0.888517 1.61203 1.425 0.794262C2.4741 1.94129 3.78289 2.87966 5.26649 3.54853C6.75009 4.2174 8.37539 4.60183 10.037 4.67689C9.97112 4.39731 9.93761 4.11246 9.937 3.82682C9.93905 3.08377 10.192 2.35834 10.6631 1.74434C11.1342 1.13033 11.8019 0.655966 12.5797 0.382578C13.3575 0.109189 14.2098 0.0493464 15.0263 0.210782C15.8429 0.372217 16.5861 0.747509 17.16 1.28814C18.0954 1.12803 18.9924 0.82476 19.811 0.391872C19.4992 1.24861 18.8464 1.97498 17.975 2.4349C18.8044 2.3509 19.6151 2.15718 20.38 1.86018C19.8081 2.59987 19.0999 3.24853 18.285 3.77885V3.78152Z" fill="#FDCE77"/>
</svg>
